<svg id="Layer_1" data-name="Layer 1" xmlns="http://www.w3.org/2000/svg" xmlns:xlink="http://www.w3.org/1999/xlink" viewBox="0 0 3000 5442.43"><defs><style>.cls-1{fill:none;}.cls-2{opacity:0.57;}.cls-3{clip-path:url(#clip-path);}.cls-4{clip-path:url(#clip-path-2);}.cls-5{fill:url(#linear-gradient);}.cls-6{clip-path:url(#clip-path-3);}.cls-7{clip-path:url(#clip-path-4);}.cls-8{fill:url(#linear-gradient-2);}.cls-9{clip-path:url(#clip-path-5);}.cls-10{clip-path:url(#clip-path-6);}.cls-11{fill:url(#linear-gradient-3);}.cls-12{clip-path:url(#clip-path-7);}.cls-13{clip-path:url(#clip-path-8);}.cls-14{fill:url(#linear-gradient-4);}.cls-15{clip-path:url(#clip-path-9);}.cls-16{clip-path:url(#clip-path-10);}.cls-17{fill:url(#linear-gradient-5);}.cls-18{clip-path:url(#clip-path-11);}.cls-19{clip-path:url(#clip-path-12);}.cls-20{fill:url(#linear-gradient-6);}.cls-21{clip-path:url(#clip-path-13);}.cls-22{clip-path:url(#clip-path-14);}.cls-23{fill:url(#linear-gradient-7);}.cls-24{clip-path:url(#clip-path-15);}.cls-25{clip-path:url(#clip-path-16);}.cls-26{fill:url(#linear-gradient-8);}.cls-27{clip-path:url(#clip-path-17);}.cls-28{clip-path:url(#clip-path-18);}.cls-29{fill:url(#linear-gradient-9);}.cls-30{clip-path:url(#clip-path-19);}.cls-31{clip-path:url(#clip-path-20);}.cls-32{fill:url(#linear-gradient-10);}.cls-33{clip-path:url(#clip-path-21);}.cls-34{clip-path:url(#clip-path-22);}.cls-35{fill:url(#linear-gradient-11);}.cls-36{clip-path:url(#clip-path-23);}.cls-37{clip-path:url(#clip-path-24);}.cls-38{fill:url(#linear-gradient-12);}.cls-39{clip-path:url(#clip-path-25);}.cls-40{clip-path:url(#clip-path-26);}.cls-41{fill:url(#linear-gradient-13);}.cls-42{clip-path:url(#clip-path-27);}.cls-43{clip-path:url(#clip-path-28);}.cls-44{fill:url(#linear-gradient-14);}.cls-45{clip-path:url(#clip-path-29);}.cls-46{clip-path:url(#clip-path-30);}.cls-47{fill:url(#linear-gradient-15);}.cls-48{clip-path:url(#clip-path-31);}.cls-49{clip-path:url(#clip-path-32);}.cls-50{fill:url(#linear-gradient-16);}.cls-51{clip-path:url(#clip-path-33);}.cls-52{clip-path:url(#clip-path-34);}.cls-53{fill:url(#linear-gradient-17);}.cls-54{clip-path:url(#clip-path-35);}.cls-55{clip-path:url(#clip-path-36);}.cls-56{fill:url(#linear-gradient-18);}</style><clipPath id="clip-path"><rect class="cls-1" x="-723.62" y="4017.22" width="948.37" height="948.37"/></clipPath><clipPath id="clip-path-2"><path class="cls-1" d="M-584.77,4156.07c185.16-185.17,485.4-185.13,670.6.07s185.24,485.44.08,670.6-485.4,185.13-670.6-.07-185.24-485.44-.08-670.6"/></clipPath><linearGradient id="linear-gradient" x1="803.43" y1="3422.23" x2="805.57" y2="3422.23" gradientTransform="matrix(-442.52, 0, 0, 442.52, 355760.96, -1509927.67)" gradientUnits="userSpaceOnUse"><stop offset="0" stop-color="#909"/><stop offset="1" stop-color="#fff"/></linearGradient><clipPath id="clip-path-3"><rect class="cls-1" x="-723.47" y="4017.07" width="948.37" height="948.37"/></clipPath><clipPath id="clip-path-4"><path class="cls-1" d="M-584.62,4155.91c185.16-185.16,485.4-185.12,670.6.08s185.24,485.44.08,670.6-485.4,185.13-670.6-.07-185.24-485.44-.08-670.61"/></clipPath><linearGradient id="linear-gradient-2" x1="803.38" y1="3422.75" x2="805.52" y2="3422.75" gradientTransform="matrix(-442.6, 0, 0, 442.6, 355801.41, -1510421.83)" xlink:href="#linear-gradient"/><clipPath id="clip-path-5"><rect class="cls-1" x="-270.91" y="3564.51" width="948.37" height="948.37"/></clipPath><clipPath id="clip-path-6"><path class="cls-1" d="M-132.06,3703.36c185.16-185.16,485.4-185.13,670.6.08s185.24,485.44.08,670.6S53.22,4559.16-132,4374s-185.23-485.44-.07-670.6"/></clipPath><linearGradient id="linear-gradient-3" x1="802.66" y1="3422.23" x2="804.8" y2="3422.23" gradientTransform="matrix(-442.52, 0, 0, 442.52, 355872.19, -1510380.38)" xlink:href="#linear-gradient"/><clipPath id="clip-path-7"><rect class="cls-1" x="-270.76" y="3564.36" width="948.37" height="948.37"/></clipPath><clipPath id="clip-path-8"><path class="cls-1" d="M-131.91,3703.21c185.16-185.16,485.4-185.13,670.6.08s185.24,485.43.08,670.59-485.4,185.13-670.6-.07-185.24-485.44-.08-670.6"/></clipPath><linearGradient id="linear-gradient-4" x1="802.62" y1="3422.62" x2="804.76" y2="3422.62" gradientTransform="matrix(-442.6, 0, 0, 442.6, 355917.81, -1510815.26)" xlink:href="#linear-gradient"/><clipPath id="clip-path-9"><rect class="cls-1" x="181.8" y="3111.81" width="948.37" height="948.37"/></clipPath><clipPath id="clip-path-10"><path class="cls-1" d="M320.65,3250.65c185.16-185.16,485.39-185.12,670.59.08s185.24,485.44.08,670.6-485.4,185.13-670.6-.08-185.23-485.44-.07-670.6"/></clipPath><linearGradient id="linear-gradient-5" x1="801.88" y1="3422.23" x2="804.03" y2="3422.23" gradientTransform="matrix(-442.52, 0, 0, 442.52, 355983.45, -1510833.09)" xlink:href="#linear-gradient"/><clipPath id="clip-path-11"><rect class="cls-1" x="181.95" y="3111.65" width="948.37" height="948.37"/></clipPath><clipPath id="clip-path-12"><path class="cls-1" d="M320.8,3250.5c185.16-185.16,485.4-185.13,670.6.08s185.23,485.44.07,670.6-485.4,185.13-670.6-.08-185.23-485.44-.07-670.6"/></clipPath><linearGradient id="linear-gradient-6" x1="801.86" y1="3422.48" x2="804" y2="3422.48" gradientTransform="matrix(-442.6, 0, 0, 442.6, 356034.26, -1511208.67)" xlink:href="#linear-gradient"/><clipPath id="clip-path-13"><rect class="cls-1" x="634.5" y="2659.1" width="948.37" height="948.37"/></clipPath><clipPath id="clip-path-14"><path class="cls-1" d="M773.35,2798c185.16-185.16,485.4-185.13,670.6.07s185.24,485.44.08,670.6-485.4,185.13-670.6-.07-185.24-485.44-.08-670.6"/></clipPath><linearGradient id="linear-gradient-7" x1="801.11" y1="3422.23" x2="803.26" y2="3422.23" gradientTransform="matrix(-442.52, 0, 0, 442.52, 356094.56, -1511285.83)" xlink:href="#linear-gradient"/><clipPath id="clip-path-15"><rect class="cls-1" x="634.66" y="2658.95" width="948.37" height="948.37"/></clipPath><clipPath id="clip-path-16"><path class="cls-1" d="M773.5,2797.79c185.17-185.16,485.4-185.12,670.61.08s185.23,485.44.07,670.6-485.4,185.13-670.6-.07S588.35,2983,773.5,2797.79"/></clipPath><linearGradient id="linear-gradient-8" x1="801.1" y1="3422.35" x2="803.24" y2="3422.35" gradientTransform="matrix(-442.6, 0, 0, 442.6, 356150.73, -1511602.08)" xlink:href="#linear-gradient"/><clipPath id="clip-path-17"><rect class="cls-1" x="1087.21" y="2206.39" width="948.37" height="948.37"/></clipPath><clipPath id="clip-path-18"><path class="cls-1" d="M1226.06,2345.24c185.16-185.16,485.4-185.13,670.6.08s185.24,485.43.08,670.59-485.4,185.13-670.61-.07-185.23-485.44-.07-670.6"/></clipPath><linearGradient id="linear-gradient-9" x1="800.34" y1="3422.23" x2="802.48" y2="3422.23" gradientTransform="matrix(-442.52, 0, 0, 442.52, 356205.95, -1511738.5)" xlink:href="#linear-gradient"/><clipPath id="clip-path-19"><rect class="cls-1" x="1087.36" y="2206.24" width="948.37" height="948.37"/></clipPath><clipPath id="clip-path-20"><path class="cls-1" d="M1226.21,2345.09c185.16-185.16,485.4-185.13,670.6.07s185.24,485.44.08,670.6-485.4,185.13-670.6-.07-185.24-485.44-.08-670.6"/></clipPath><linearGradient id="linear-gradient-10" x1="800.34" y1="3422.22" x2="802.48" y2="3422.22" gradientTransform="matrix(-442.6, 0, 0, 442.6, 356267.26, -1511995.47)" xlink:href="#linear-gradient"/><clipPath id="clip-path-21"><rect class="cls-1" x="1539.92" y="1753.69" width="948.37" height="948.36"/></clipPath><clipPath id="clip-path-22"><path class="cls-1" d="M1678.77,1892.53c185.16-185.16,485.39-185.12,670.6.08s185.23,485.44.07,670.6-485.4,185.13-670.6-.08-185.23-485.44-.07-670.6"/></clipPath><linearGradient id="linear-gradient-11" x1="799.57" y1="3422.23" x2="801.71" y2="3422.23" gradientTransform="matrix(-442.52, 0, 0, 442.52, 356317.11, -1512191.23)" xlink:href="#linear-gradient"/><clipPath id="clip-path-23"><rect class="cls-1" x="1540.07" y="1753.52" width="948.37" height="948.38"/></clipPath><clipPath id="clip-path-24"><path class="cls-1" d="M1678.92,1892.38c185.16-185.16,485.4-185.13,670.6.08s185.24,485.44.08,670.6S1864.2,2748.18,1679,2563s-185.23-485.44-.07-670.6"/></clipPath><linearGradient id="linear-gradient-12" x1="799.58" y1="3422.08" x2="801.72" y2="3422.08" gradientTransform="matrix(-442.6, 0, 0, 442.6, 356383.62, -1512388.9)" xlink:href="#linear-gradient"/><clipPath id="clip-path-25"><rect class="cls-1" x="1992.62" y="1300.97" width="948.38" height="948.38"/></clipPath><clipPath id="clip-path-26"><path class="cls-1" d="M2131.47,1439.83c185.16-185.17,485.4-185.13,670.61.07s185.23,485.44.07,670.6-485.4,185.13-670.6-.07-185.24-485.44-.08-670.6"/></clipPath><linearGradient id="linear-gradient-13" x1="798.8" y1="3422.23" x2="800.94" y2="3422.23" gradientTransform="matrix(-442.52, 0, 0, 442.52, 356428.56, -1512643.9)" xlink:href="#linear-gradient"/><clipPath id="clip-path-27"><rect class="cls-1" x="1992.78" y="1300.82" width="948.38" height="948.37"/></clipPath><clipPath id="clip-path-28"><path class="cls-1" d="M2131.62,1439.67c185.16-185.16,485.4-185.12,670.6.08s185.24,485.44.08,670.6-485.4,185.13-670.6-.08-185.24-485.44-.08-670.6"/></clipPath><linearGradient id="linear-gradient-14" x1="798.82" y1="3421.95" x2="800.96" y2="3421.95" gradientTransform="matrix(-442.6, 0, 0, 442.6, 356499.84, -1512782.37)" xlink:href="#linear-gradient"/><clipPath id="clip-path-29"><rect class="cls-1" x="2445.32" y="848.27" width="948.39" height="948.36"/></clipPath><clipPath id="clip-path-30"><path class="cls-1" d="M2584.18,987.12c185.16-185.16,485.4-185.13,670.6.08s185.24,485.44.08,670.6-485.4,185.12-670.6-.08-185.24-485.44-.08-670.6"/></clipPath><linearGradient id="linear-gradient-15" x1="798.03" y1="3422.23" x2="800.17" y2="3422.23" gradientTransform="matrix(-442.52, 0, 0, 442.52, 356539.62, -1513096.65)" xlink:href="#linear-gradient"/><clipPath id="clip-path-31"><rect class="cls-1" x="2445.49" y="848.12" width="948.36" height="948.36"/></clipPath><clipPath id="clip-path-32"><path class="cls-1" d="M2584.33,987c185.16-185.16,485.4-185.13,670.6.07s185.24,485.44.08,670.6-485.4,185.13-670.6-.07-185.24-485.44-.08-670.6"/></clipPath><linearGradient id="linear-gradient-16" x1="798.06" y1="3421.81" x2="800.2" y2="3421.81" gradientTransform="matrix(-442.6, 0, 0, 442.6, 356616.59, -1513175.71)" xlink:href="#linear-gradient"/><clipPath id="clip-path-33"><rect class="cls-1" x="2898.04" y="395.57" width="948.36" height="948.36"/></clipPath><clipPath id="clip-path-34"><path class="cls-1" d="M3036.89,534.41c185.16-185.16,485.4-185.12,670.6.08s185.23,485.44.07,670.6-485.39,185.12-670.6-.08-185.23-485.44-.07-670.6"/></clipPath><linearGradient id="linear-gradient-17" x1="797.26" y1="3422.23" x2="799.4" y2="3422.23" gradientTransform="matrix(-442.52, 0, 0, 442.52, 356650.68, -1513549.4)" xlink:href="#linear-gradient"/><clipPath id="clip-path-35"><rect class="cls-1" x="2898.19" y="395.4" width="948.36" height="948.39"/></clipPath><clipPath id="clip-path-36"><path class="cls-1" d="M3037,534.26c185.16-185.16,485.4-185.13,670.6.08s185.24,485.44.07,670.6-485.39,185.12-670.6-.08-185.23-485.44-.07-670.6"/></clipPath><linearGradient id="linear-gradient-18" x1="797.3" y1="3421.68" x2="799.44" y2="3421.68" gradientTransform="matrix(-442.6, 0, 0, 442.6, 356732.61, -1513569.22)" xlink:href="#linear-gradient"/></defs><title>bgd</title><g class="cls-2"><g class="cls-3"><g class="cls-4"><rect class="cls-5" x="-985.53" y="3755.31" width="1472.19" height="1472.19" transform="translate(-3248.96 1139.13) rotate(-45)"/></g></g></g><g class="cls-2"><g class="cls-6"><g class="cls-7"><rect class="cls-8" x="-974.19" y="3766.34" width="1449.83" height="1449.83" transform="translate(-2621.16 669.25) rotate(-35)"/></g></g></g><g class="cls-2"><g class="cls-9"><g class="cls-10"><rect class="cls-11" x="-532.82" y="3302.6" width="1472.19" height="1472.19" transform="translate(-2796.25 1326.65) rotate(-45)"/></g></g></g><g class="cls-2"><g class="cls-12"><g class="cls-13"><rect class="cls-14" x="-521.48" y="3313.63" width="1449.83" height="1449.83" transform="translate(-2279.62 847.04) rotate(-35)"/></g></g></g><g class="cls-2"><g class="cls-15"><g class="cls-16"><rect class="cls-17" x="-80.11" y="2849.9" width="1472.19" height="1472.19" transform="translate(-2343.55 1514.16) rotate(-45)"/></g></g></g><g class="cls-2"><g class="cls-18"><g class="cls-19"><rect class="cls-20" x="-68.78" y="2860.93" width="1449.83" height="1449.83" transform="translate(-1938.09 1024.84) rotate(-35)"/></g></g></g><g class="cls-2"><g class="cls-21"><g class="cls-22"><rect class="cls-23" x="372.59" y="2397.19" width="1472.19" height="1472.19" transform="translate(-1890.84 1701.68) rotate(-45)"/></g></g></g><g class="cls-2"><g class="cls-24"><g class="cls-25"><rect class="cls-26" x="383.93" y="2408.22" width="1449.83" height="1449.83" transform="translate(-1596.56 1202.63) rotate(-35)"/></g></g></g><g class="cls-2"><g class="cls-27"><g class="cls-28"><rect class="cls-29" x="825.3" y="1944.48" width="1472.19" height="1472.19" transform="translate(-1438.13 1889.2) rotate(-45)"/></g></g></g><g class="cls-2"><g class="cls-30"><g class="cls-31"><rect class="cls-32" x="836.63" y="1955.51" width="1449.83" height="1449.83" transform="translate(-1255.03 1380.42) rotate(-35)"/></g></g></g><g class="cls-2"><g class="cls-33"><g class="cls-34"><rect class="cls-35" x="1278.01" y="1491.78" width="1472.19" height="1472.19" transform="translate(-985.43 2076.71) rotate(-45)"/></g></g></g><g class="cls-2"><g class="cls-36"><g class="cls-37"><rect class="cls-38" x="1289.34" y="1502.81" width="1449.83" height="1449.83" transform="translate(-913.49 1558.21) rotate(-35)"/></g></g></g><g class="cls-2"><g class="cls-39"><g class="cls-40"><rect class="cls-41" x="1730.71" y="1039.07" width="1472.19" height="1472.19" transform="translate(-532.72 2264.23) rotate(-45)"/></g></g></g><g class="cls-2"><g class="cls-42"><g class="cls-43"><rect class="cls-44" x="1742.05" y="1050.1" width="1449.82" height="1449.82" transform="translate(-571.96 1736) rotate(-35)"/></g></g></g><g class="cls-2"><g class="cls-45"><g class="cls-46"><rect class="cls-47" x="2183.42" y="586.36" width="1472.19" height="1472.19" transform="translate(-80.01 2451.75) rotate(-45)"/></g></g></g><g class="cls-2"><g class="cls-48"><g class="cls-49"><rect class="cls-50" x="2194.76" y="597.39" width="1449.83" height="1449.83" transform="translate(-230.43 1913.79) rotate(-35)"/></g></g></g><g class="cls-2"><g class="cls-51"><g class="cls-52"><rect class="cls-53" x="2636.13" y="133.65" width="1472.19" height="1472.19" transform="translate(372.7 2639.27) rotate(-45)"/></g></g></g><g class="cls-2"><g class="cls-54"><g class="cls-55"><rect class="cls-56" x="2647.46" y="144.68" width="1449.83" height="1449.83" transform="translate(111.11 2091.58) rotate(-35)"/></g></g></g></svg>