<svg xmlns="http://www.w3.org/2000/svg" xmlns:xlink="http://www.w3.org/1999/xlink" viewBox="0 0 1280 1600"><defs><style>.cls-1{opacity:0.57;}.cls-2{fill:url(#linear-gradient);}.cls-3{fill:url(#linear-gradient-2);}.cls-4{fill:url(#linear-gradient-3);}.cls-5{fill:url(#linear-gradient-4);}.cls-6{fill:url(#linear-gradient-5);}.cls-7{fill:url(#linear-gradient-6);}.cls-8{fill:url(#linear-gradient-7);}.cls-9{fill:url(#linear-gradient-8);}.cls-10{fill:url(#linear-gradient-9);}.cls-11{fill:url(#linear-gradient-10);}.cls-12{fill:url(#linear-gradient-11);}.cls-13{fill:url(#linear-gradient-12);}.cls-14{fill:url(#linear-gradient-13);}.cls-15{fill:url(#linear-gradient-14);}.cls-16{fill:url(#linear-gradient-15);}.cls-17{fill:url(#linear-gradient-16);}.cls-18{fill:url(#linear-gradient-17);}.cls-19{fill:url(#linear-gradient-18);}.cls-20{fill:url(#linear-gradient-19);}.cls-21{fill:url(#linear-gradient-20);}.cls-22{fill:url(#linear-gradient-21);}.cls-23{fill:url(#linear-gradient-22);}.cls-24{fill:url(#linear-gradient-23);}.cls-25{fill:url(#linear-gradient-24);}</style><linearGradient id="linear-gradient" x1="19658" y1="219.95" x2="19658" gradientTransform="matrix(-1, 0, 0, 1, 19768, 0)" gradientUnits="userSpaceOnUse"><stop offset="0" stop-color="#40758a"/><stop offset="1" stop-color="#fff"/></linearGradient><linearGradient id="linear-gradient-2" x1="19638.9" y1="218.35" x2="19677.1" y2="1.7" xlink:href="#linear-gradient"/><linearGradient id="linear-gradient-3" x1="19540.22" y1="373.28" x2="19540.22" y2="153.33" xlink:href="#linear-gradient"/><linearGradient id="linear-gradient-4" x1="19521.12" y1="371.68" x2="19559.32" y2="155.04" xlink:href="#linear-gradient"/><linearGradient id="linear-gradient-5" x1="19422.44" y1="526.62" x2="19422.44" y2="306.67" xlink:href="#linear-gradient"/><linearGradient id="linear-gradient-6" x1="19403.34" y1="525.01" x2="19441.54" y2="308.37" xlink:href="#linear-gradient"/><linearGradient id="linear-gradient-7" x1="19304.67" y1="679.95" x2="19304.67" y2="460" xlink:href="#linear-gradient"/><linearGradient id="linear-gradient-8" x1="19285.57" y1="678.35" x2="19323.77" y2="461.7" xlink:href="#linear-gradient"/><linearGradient id="linear-gradient-9" x1="19186.89" y1="833.28" x2="19186.89" y2="613.33" xlink:href="#linear-gradient"/><linearGradient id="linear-gradient-10" x1="19167.79" y1="831.68" x2="19205.99" y2="615.04" xlink:href="#linear-gradient"/><linearGradient id="linear-gradient-11" x1="19069.11" y1="986.62" x2="19069.11" y2="766.67" xlink:href="#linear-gradient"/><linearGradient id="linear-gradient-12" x1="19050.01" y1="985.01" x2="19088.21" y2="768.37" xlink:href="#linear-gradient"/><linearGradient id="linear-gradient-13" x1="18951.33" y1="1139.95" x2="18951.33" y2="920" xlink:href="#linear-gradient"/><linearGradient id="linear-gradient-14" x1="18932.23" y1="1138.35" x2="18970.43" y2="921.7" xlink:href="#linear-gradient"/><linearGradient id="linear-gradient-15" x1="18833.56" y1="1293.28" x2="18833.56" y2="1073.33" xlink:href="#linear-gradient"/><linearGradient id="linear-gradient-16" x1="18814.46" y1="1291.68" x2="18852.66" y2="1075.04" xlink:href="#linear-gradient"/><linearGradient id="linear-gradient-17" x1="18715.78" y1="1446.62" x2="18715.78" y2="1226.67" xlink:href="#linear-gradient"/><linearGradient id="linear-gradient-18" x1="18696.68" y1="1445.01" x2="18734.88" y2="1228.37" xlink:href="#linear-gradient"/><linearGradient id="linear-gradient-19" x1="18598" y1="1599.95" x2="18598" y2="1380" xlink:href="#linear-gradient"/><linearGradient id="linear-gradient-20" x1="18578.9" y1="1598.35" x2="18617.1" y2="1381.7" xlink:href="#linear-gradient"/><linearGradient id="linear-gradient-21" x1="129.1" y1="218.3" x2="90.9" y2="1.65" gradientUnits="userSpaceOnUse"><stop offset="0" stop-color="#7d00b4"/><stop offset="1" stop-color="#ff3291"/></linearGradient><linearGradient id="linear-gradient-22" x1="129.1" y1="218.35" x2="90.9" y2="1.7" xlink:href="#linear-gradient-21"/><linearGradient id="linear-gradient-23" x1="110" y1="219.95" x2="110" y2="0" xlink:href="#linear-gradient-21"/><linearGradient id="linear-gradient-24" x1="110" y1="220" x2="110" y2="0.05" xlink:href="#linear-gradient-21"/></defs><title>c01</title><g id="Layer_1" data-name="Layer 1"><g class="cls-1"><ellipse class="cls-2" cx="110" cy="109.98" rx="110" ry="109.98"/></g><g class="cls-1"><ellipse class="cls-3" cx="110" cy="110.02" rx="110" ry="109.98"/></g><g class="cls-1"><ellipse class="cls-4" cx="227.78" cy="263.31" rx="110" ry="109.98"/></g><g class="cls-1"><ellipse class="cls-5" cx="227.78" cy="263.36" rx="110" ry="109.98"/></g><g class="cls-1"><ellipse class="cls-6" cx="345.56" cy="416.64" rx="110" ry="109.98"/></g><g class="cls-1"><ellipse class="cls-7" cx="345.56" cy="416.69" rx="110" ry="109.98"/></g><g class="cls-1"><ellipse class="cls-8" cx="463.33" cy="569.98" rx="110" ry="109.98"/></g><g class="cls-1"><ellipse class="cls-9" cx="463.33" cy="570.02" rx="110" ry="109.98"/></g><g class="cls-1"><ellipse class="cls-10" cx="581.11" cy="723.31" rx="110" ry="109.98"/></g><g class="cls-1"><ellipse class="cls-11" cx="581.11" cy="723.36" rx="110" ry="109.98"/></g><g class="cls-1"><ellipse class="cls-12" cx="698.89" cy="876.64" rx="110" ry="109.98"/></g><g class="cls-1"><ellipse class="cls-13" cx="698.89" cy="876.69" rx="110" ry="109.98"/></g><g class="cls-1"><ellipse class="cls-14" cx="816.67" cy="1029.98" rx="110" ry="109.98"/></g><g class="cls-1"><ellipse class="cls-15" cx="816.67" cy="1030.02" rx="110" ry="109.98"/></g><g class="cls-1"><ellipse class="cls-16" cx="934.44" cy="1183.31" rx="110" ry="109.98"/></g><g class="cls-1"><ellipse class="cls-17" cx="934.44" cy="1183.36" rx="110" ry="109.98"/></g><g class="cls-1"><ellipse class="cls-18" cx="1052.22" cy="1336.64" rx="110" ry="109.98"/></g><g class="cls-1"><ellipse class="cls-19" cx="1052.22" cy="1336.69" rx="110" ry="109.98"/></g><g class="cls-1"><ellipse class="cls-20" cx="1170" cy="1489.98" rx="110" ry="109.98"/></g><g class="cls-1"><ellipse class="cls-21" cx="1170" cy="1490.02" rx="110" ry="109.98"/></g></g><g id="numbers"><g class="cls-1"><ellipse class="cls-22" cx="110" cy="109.98" rx="110" ry="109.98"/></g><g class="cls-1"><ellipse class="cls-23" cx="110" cy="110.02" rx="110" ry="109.98"/></g><g class="cls-1"><ellipse class="cls-24" cx="110" cy="109.98" rx="110" ry="109.98"/></g><g class="cls-1"><ellipse class="cls-25" cx="110" cy="110.02" rx="110" ry="109.98"/></g></g></svg>