<svg id="Layer_1" data-name="Layer 1" xmlns="http://www.w3.org/2000/svg" xmlns:xlink="http://www.w3.org/1999/xlink" viewBox="0 0 1280 1600"><defs><style>.cls-1{opacity:0.57;}.cls-2{fill:url(#linear-gradient);}.cls-3{fill:url(#linear-gradient-2);}.cls-4{fill:url(#linear-gradient-3);}.cls-5{fill:url(#linear-gradient-4);}.cls-6{fill:url(#linear-gradient-5);}.cls-7{fill:url(#linear-gradient-6);}.cls-8{fill:url(#linear-gradient-7);}.cls-9{fill:url(#linear-gradient-8);}.cls-10{fill:url(#linear-gradient-9);}.cls-11{fill:url(#linear-gradient-10);}.cls-12{fill:url(#linear-gradient-11);}.cls-13{fill:url(#linear-gradient-12);}.cls-14{fill:url(#linear-gradient-13);}.cls-15{fill:url(#linear-gradient-14);}.cls-16{fill:url(#linear-gradient-15);}.cls-17{fill:url(#linear-gradient-16);}.cls-18{fill:url(#linear-gradient-17);}.cls-19{fill:url(#linear-gradient-18);}.cls-20{fill:url(#linear-gradient-19);}.cls-21{fill:url(#linear-gradient-20);}</style><linearGradient id="linear-gradient" x1="580" y1="821.95" x2="580" y2="622" gradientUnits="userSpaceOnUse"><stop offset="0" stop-color="#0b2363"/><stop offset="1" stop-color="#007bff"/></linearGradient><linearGradient id="linear-gradient-2" x1="562.64" y1="820.5" x2="597.36" y2="623.55" xlink:href="#linear-gradient"/><linearGradient id="linear-gradient-3" x1="1060" y1="199.95" x2="1060" gradientTransform="matrix(-1, 0, 0, 1, 1160, 0)" gradientUnits="userSpaceOnUse"><stop offset="0" stop-color="#3b4463"/><stop offset="1" stop-color="#fff"/></linearGradient><linearGradient id="linear-gradient-4" x1="1042.64" y1="198.5" x2="1077.36" y2="1.55" xlink:href="#linear-gradient-3"/><linearGradient id="linear-gradient-5" x1="940" y1="355.51" x2="940" y2="155.56" xlink:href="#linear-gradient-3"/><linearGradient id="linear-gradient-6" x1="922.64" y1="354.05" x2="957.36" y2="157.1" xlink:href="#linear-gradient-3"/><linearGradient id="linear-gradient-7" x1="820" y1="511.07" x2="820" y2="311.11" xlink:href="#linear-gradient-3"/><linearGradient id="linear-gradient-8" x1="802.64" y1="509.61" x2="837.36" y2="312.66" xlink:href="#linear-gradient-3"/><linearGradient id="linear-gradient-9" x1="700" y1="666.62" x2="700" y2="466.67" xlink:href="#linear-gradient-3"/><linearGradient id="linear-gradient-10" x1="682.64" y1="665.16" x2="717.36" y2="468.21" xlink:href="#linear-gradient-3"/><linearGradient id="linear-gradient-11" x1="460" y1="977.73" x2="460" y2="777.78" xlink:href="#linear-gradient-3"/><linearGradient id="linear-gradient-12" x1="442.64" y1="976.28" x2="477.36" y2="779.32" xlink:href="#linear-gradient-3"/><linearGradient id="linear-gradient-13" x1="340" y1="1133.29" x2="340" y2="933.33" xlink:href="#linear-gradient-3"/><linearGradient id="linear-gradient-14" x1="322.64" y1="1131.83" x2="357.36" y2="934.88" xlink:href="#linear-gradient-3"/><linearGradient id="linear-gradient-15" x1="220" y1="1288.84" x2="220" y2="1088.89" xlink:href="#linear-gradient-3"/><linearGradient id="linear-gradient-16" x1="202.64" y1="1287.39" x2="237.36" y2="1090.44" xlink:href="#linear-gradient-3"/><linearGradient id="linear-gradient-17" x1="100" y1="1444.4" x2="100" y2="1244.44" xlink:href="#linear-gradient-3"/><linearGradient id="linear-gradient-18" x1="82.64" y1="1442.94" x2="117.36" y2="1245.99" xlink:href="#linear-gradient-3"/><linearGradient id="linear-gradient-19" x1="-20" y1="1599.95" x2="-20" y2="1400" xlink:href="#linear-gradient-3"/><linearGradient id="linear-gradient-20" x1="-37.36" y1="1598.5" x2="-2.64" y2="1401.55" xlink:href="#linear-gradient-3"/></defs><title>class-05</title><g class="cls-1"><ellipse class="cls-2" cx="580" cy="721.98" rx="100" ry="99.98"/></g><g class="cls-1"><ellipse class="cls-3" cx="580" cy="722.02" rx="100" ry="99.98"/></g><g class="cls-1"><ellipse class="cls-4" cx="100" cy="99.98" rx="100" ry="99.98"/></g><g class="cls-1"><ellipse class="cls-5" cx="100" cy="100.02" rx="100" ry="99.98"/></g><g class="cls-1"><ellipse class="cls-6" cx="220" cy="255.53" rx="100" ry="99.98"/></g><g class="cls-1"><ellipse class="cls-7" cx="220" cy="255.58" rx="100" ry="99.98"/></g><g class="cls-1"><ellipse class="cls-8" cx="340" cy="411.09" rx="100" ry="99.98"/></g><g class="cls-1"><ellipse class="cls-9" cx="340" cy="411.13" rx="100" ry="99.98"/></g><g class="cls-1"><ellipse class="cls-10" cx="460" cy="566.64" rx="100" ry="99.98"/></g><g class="cls-1"><ellipse class="cls-11" cx="460" cy="566.69" rx="100" ry="99.98"/></g><g class="cls-1"><ellipse class="cls-12" cx="700" cy="877.76" rx="100" ry="99.98"/></g><g class="cls-1"><ellipse class="cls-13" cx="700" cy="877.8" rx="100" ry="99.98"/></g><g class="cls-1"><ellipse class="cls-14" cx="820" cy="1033.31" rx="100" ry="99.98"/></g><g class="cls-1"><ellipse class="cls-15" cx="820" cy="1033.36" rx="100" ry="99.98"/></g><g class="cls-1"><ellipse class="cls-16" cx="940" cy="1188.87" rx="100" ry="99.98"/></g><g class="cls-1"><ellipse class="cls-17" cx="940" cy="1188.91" rx="100" ry="99.98"/></g><g class="cls-1"><ellipse class="cls-18" cx="1060" cy="1344.42" rx="100" ry="99.98"/></g><g class="cls-1"><ellipse class="cls-19" cx="1060" cy="1344.47" rx="100" ry="99.98"/></g><g class="cls-1"><ellipse class="cls-20" cx="1180" cy="1499.98" rx="100" ry="99.98"/></g><g class="cls-1"><ellipse class="cls-21" cx="1180" cy="1500.02" rx="100" ry="99.98"/></g></svg>