<svg id="Layer_1" data-name="Layer 1" xmlns="http://www.w3.org/2000/svg" xmlns:xlink="http://www.w3.org/1999/xlink" viewBox="0 0 1200 100"><defs><style>.cls-1{opacity:0.57;}.cls-2{fill:url(#linear-gradient);}.cls-3{fill:url(#linear-gradient-2);}.cls-4{fill:url(#linear-gradient-3);}.cls-5{fill:url(#linear-gradient-4);}.cls-6{fill:url(#linear-gradient-5);}.cls-7{fill:url(#linear-gradient-6);}.cls-8{fill:url(#linear-gradient-7);}.cls-9{fill:url(#linear-gradient-8);}.cls-10{fill:url(#linear-gradient-9);}.cls-11{fill:url(#linear-gradient-10);}.cls-12{fill:url(#linear-gradient-11);}.cls-13{fill:url(#linear-gradient-12);}.cls-14{fill:url(#linear-gradient-13);}.cls-15{fill:url(#linear-gradient-14);}.cls-16{fill:url(#linear-gradient-15);}.cls-17{fill:url(#linear-gradient-16);}</style><linearGradient id="linear-gradient" x1="1756.19" y1="921.7" x2="1756.19" y2="896.7" gradientTransform="translate(1768.69 959.2) rotate(180)" gradientUnits="userSpaceOnUse"><stop offset="0" stop-color="#f06"/><stop offset="1" stop-color="#f6f"/></linearGradient><linearGradient id="linear-gradient-2" x1="1754.02" y1="921.51" x2="1758.36" y2="896.89" xlink:href="#linear-gradient"/><linearGradient id="linear-gradient-3" x1="1861" y1="966.99" x2="1861" y2="942" gradientTransform="translate(-1698.5 -904.5)" xlink:href="#linear-gradient"/><linearGradient id="linear-gradient-4" x1="1858.83" y1="966.81" x2="1863.17" y2="942.19" gradientTransform="translate(-1698.5 -904.5)" xlink:href="#linear-gradient"/><linearGradient id="linear-gradient-5" x1="1156.19" y1="921.7" x2="1156.19" y2="896.7" xlink:href="#linear-gradient"/><linearGradient id="linear-gradient-6" x1="1154.02" y1="921.51" x2="1158.36" y2="896.89" xlink:href="#linear-gradient"/><linearGradient id="linear-gradient-7" x1="2825.29" y1="966.99" x2="2825.29" y2="942" gradientTransform="translate(3737.79 1004.5) rotate(180)" xlink:href="#linear-gradient"/><linearGradient id="linear-gradient-8" x1="2823.12" y1="966.81" x2="2827.46" y2="942.19" gradientTransform="translate(3737.79 1004.5) rotate(180)" xlink:href="#linear-gradient"/><linearGradient id="linear-gradient-9" x1="791.91" y1="921.7" x2="791.91" y2="896.7" gradientTransform="translate(270.59 -859.2)" xlink:href="#linear-gradient"/><linearGradient id="linear-gradient-10" x1="789.74" y1="921.51" x2="794.08" y2="896.89" gradientTransform="translate(270.59 -859.2)" xlink:href="#linear-gradient"/><linearGradient id="linear-gradient-11" x1="2161" y1="966.99" x2="2161" y2="942" gradientTransform="translate(-1698.5 -904.5)" xlink:href="#linear-gradient"/><linearGradient id="linear-gradient-12" x1="2158.83" y1="966.81" x2="2163.17" y2="942.19" gradientTransform="translate(-1698.5 -904.5)" xlink:href="#linear-gradient"/><linearGradient id="linear-gradient-13" x1="1456.19" y1="921.7" x2="1456.19" y2="896.7" xlink:href="#linear-gradient"/><linearGradient id="linear-gradient-14" x1="1454.02" y1="921.51" x2="1458.36" y2="896.89" xlink:href="#linear-gradient"/><linearGradient id="linear-gradient-15" x1="2796.71" y1="966.99" x2="2796.71" y2="942" gradientTransform="translate(-2034.21 -904.5)" xlink:href="#linear-gradient"/><linearGradient id="linear-gradient-16" x1="2794.54" y1="966.81" x2="2798.88" y2="942.19" gradientTransform="translate(-2034.21 -904.5)" xlink:href="#linear-gradient"/></defs><g class="cls-1"><circle class="cls-2" cx="12.5" cy="50" r="12.5"/></g><g class="cls-1"><circle class="cls-3" cx="12.5" cy="50" r="12.5"/></g><g class="cls-1"><circle class="cls-4" cx="162.5" cy="50" r="12.5"/></g><g class="cls-1"><circle class="cls-5" cx="162.5" cy="50" r="12.5"/></g><g class="cls-1"><circle class="cls-6" cx="612.5" cy="50" r="12.5"/></g><g class="cls-1"><circle class="cls-7" cx="612.5" cy="50" r="12.5"/></g><g class="cls-1"><circle class="cls-8" cx="912.5" cy="50" r="12.5"/></g><g class="cls-1"><circle class="cls-9" cx="912.5" cy="50" r="12.5"/></g><g class="cls-1"><circle class="cls-10" cx="1062.5" cy="50" r="12.5"/></g><g class="cls-1"><circle class="cls-11" cx="1062.5" cy="50" r="12.5"/></g><g class="cls-1"><circle class="cls-12" cx="462.5" cy="50" r="12.5"/></g><g class="cls-1"><circle class="cls-13" cx="462.5" cy="50" r="12.5"/></g><g class="cls-1"><circle class="cls-14" cx="312.5" cy="50" r="12.5"/></g><g class="cls-1"><circle class="cls-15" cx="312.5" cy="50" r="12.5"/></g><g class="cls-1"><circle class="cls-16" cx="762.5" cy="50" r="12.5"/></g><g class="cls-1"><circle class="cls-17" cx="762.5" cy="50" r="12.5"/></g></svg>