<svg id="Layer_1" data-name="Layer 1" xmlns="http://www.w3.org/2000/svg" xmlns:xlink="http://www.w3.org/1999/xlink" viewBox="0 0 1200 100"><defs><style>.cls-1{opacity:0.5;}.cls-2{opacity:0.57;}.cls-3{fill:url(#linear-gradient);}.cls-4{fill:url(#linear-gradient-2);}.cls-5{fill:url(#linear-gradient-3);}.cls-6{fill:url(#linear-gradient-4);}.cls-7{fill:url(#linear-gradient-5);}.cls-8{fill:url(#linear-gradient-6);}.cls-9{fill:url(#linear-gradient-7);}.cls-10{fill:url(#linear-gradient-8);}.cls-11{fill:url(#linear-gradient-9);}.cls-12{fill:url(#linear-gradient-10);}.cls-13{fill:url(#linear-gradient-11);}.cls-14{fill:url(#linear-gradient-12);}.cls-15{fill:url(#linear-gradient-13);}.cls-16{fill:url(#linear-gradient-14);}.cls-17{fill:url(#linear-gradient-15);}.cls-18{fill:url(#linear-gradient-16);}.cls-19{fill:url(#linear-gradient-17);}.cls-20{fill:url(#linear-gradient-18);}.cls-21{fill:url(#linear-gradient-19);}.cls-22{fill:url(#linear-gradient-20);}.cls-23{fill:url(#linear-gradient-21);}.cls-24{fill:url(#linear-gradient-22);}.cls-25{fill:url(#linear-gradient-23);}.cls-26{fill:url(#linear-gradient-24);}.cls-27{fill:url(#linear-gradient-25);}.cls-28{fill:url(#linear-gradient-26);}.cls-29{fill:url(#linear-gradient-27);}.cls-30{fill:url(#linear-gradient-28);}.cls-31{fill:url(#linear-gradient-29);}.cls-32{fill:url(#linear-gradient-30);}.cls-33{fill:url(#linear-gradient-31);}.cls-34{fill:url(#linear-gradient-32);}.cls-35{fill:url(#linear-gradient-33);}.cls-36{fill:url(#linear-gradient-34);}.cls-37{fill:url(#linear-gradient-35);}.cls-38{fill:url(#linear-gradient-36);}.cls-39{fill:url(#linear-gradient-37);}.cls-40{fill:url(#linear-gradient-38);}.cls-41{fill:url(#linear-gradient-39);}.cls-42{fill:url(#linear-gradient-40);}.cls-43{fill:url(#linear-gradient-41);}.cls-44{fill:url(#linear-gradient-42);}.cls-45{fill:url(#linear-gradient-43);}.cls-46{fill:url(#linear-gradient-44);}.cls-47{fill:url(#linear-gradient-45);}.cls-48{fill:url(#linear-gradient-46);}.cls-49{fill:url(#linear-gradient-47);}.cls-50{fill:url(#linear-gradient-48);}.cls-51{fill:url(#linear-gradient-49);}.cls-52{fill:url(#linear-gradient-50);}.cls-53{fill:url(#linear-gradient-51);}.cls-54{fill:url(#linear-gradient-52);}.cls-55{fill:url(#linear-gradient-53);}.cls-56{fill:url(#linear-gradient-54);}</style><linearGradient id="linear-gradient" x1="1711" y1="-179.94" x2="1711" y2="-233.05" gradientTransform="translate(966.95 -1661.05) rotate(90)" gradientUnits="userSpaceOnUse"><stop offset="0" stop-color="#3b4463"/><stop offset="1" stop-color="#fff"/></linearGradient><linearGradient id="linear-gradient-2" x1="1706.39" y1="-180.33" x2="1715.61" y2="-232.64" xlink:href="#linear-gradient"/><linearGradient id="linear-gradient-3" y1="-135.83" y2="-188.94" xlink:href="#linear-gradient"/><linearGradient id="linear-gradient-4" x1="1706.39" y1="-136.22" x2="1715.61" y2="-188.53" xlink:href="#linear-gradient"/><linearGradient id="linear-gradient-5" y1="-91.72" y2="-144.83" xlink:href="#linear-gradient"/><linearGradient id="linear-gradient-6" x1="1706.39" y1="-92.11" x2="1715.61" y2="-144.42" xlink:href="#linear-gradient"/><linearGradient id="linear-gradient-7" y1="-47.61" y2="-100.72" xlink:href="#linear-gradient"/><linearGradient id="linear-gradient-8" x1="1706.39" y1="-48" x2="1715.61" y2="-100.31" xlink:href="#linear-gradient"/><linearGradient id="linear-gradient-9" y1="-3.5" y2="-56.61" xlink:href="#linear-gradient"/><linearGradient id="linear-gradient-10" x1="1706.39" y1="-3.88" x2="1715.61" y2="-56.2" xlink:href="#linear-gradient"/><linearGradient id="linear-gradient-11" y1="40.61" y2="-12.5" xlink:href="#linear-gradient"/><linearGradient id="linear-gradient-12" x1="1706.39" y1="40.23" x2="1715.61" y2="-12.09" xlink:href="#linear-gradient"/><linearGradient id="linear-gradient-13" y1="84.72" y2="31.61" xlink:href="#linear-gradient"/><linearGradient id="linear-gradient-14" x1="1706.39" y1="84.34" x2="1715.61" y2="32.02" xlink:href="#linear-gradient"/><linearGradient id="linear-gradient-15" y1="128.83" y2="75.72" xlink:href="#linear-gradient"/><linearGradient id="linear-gradient-16" x1="1706.39" y1="128.45" x2="1715.61" y2="76.13" xlink:href="#linear-gradient"/><linearGradient id="linear-gradient-17" y1="172.94" y2="119.83" xlink:href="#linear-gradient"/><linearGradient id="linear-gradient-18" x1="1706.39" y1="172.56" x2="1715.61" y2="120.24" xlink:href="#linear-gradient"/><linearGradient id="linear-gradient-19" y1="217.05" y2="163.94" xlink:href="#linear-gradient"/><linearGradient id="linear-gradient-20" x1="1706.39" y1="216.67" x2="1715.61" y2="164.35" xlink:href="#linear-gradient"/><linearGradient id="linear-gradient-21" y1="261.17" y2="208.05" xlink:href="#linear-gradient"/><linearGradient id="linear-gradient-22" x1="1706.39" y1="260.78" x2="1715.61" y2="208.46" xlink:href="#linear-gradient"/><linearGradient id="linear-gradient-23" y1="305.28" y2="252.16" xlink:href="#linear-gradient"/><linearGradient id="linear-gradient-24" x1="1706.39" y1="304.89" x2="1715.61" y2="252.57" xlink:href="#linear-gradient"/><linearGradient id="linear-gradient-25" y1="349.39" y2="296.27" xlink:href="#linear-gradient"/><linearGradient id="linear-gradient-26" x1="1706.39" y1="349" x2="1715.61" y2="296.68" xlink:href="#linear-gradient"/><linearGradient id="linear-gradient-27" y1="393.5" y2="340.38" xlink:href="#linear-gradient"/><linearGradient id="linear-gradient-28" x1="1706.39" y1="393.11" x2="1715.61" y2="340.8" xlink:href="#linear-gradient"/><linearGradient id="linear-gradient-29" y1="437.61" y2="384.49" xlink:href="#linear-gradient"/><linearGradient id="linear-gradient-30" x1="1706.39" y1="437.22" x2="1715.61" y2="384.91" xlink:href="#linear-gradient"/><linearGradient id="linear-gradient-31" y1="481.72" y2="428.61" xlink:href="#linear-gradient"/><linearGradient id="linear-gradient-32" x1="1706.39" y1="481.33" x2="1715.61" y2="429.02" xlink:href="#linear-gradient"/><linearGradient id="linear-gradient-33" y1="525.83" y2="472.72" xlink:href="#linear-gradient"/><linearGradient id="linear-gradient-34" x1="1706.39" y1="525.44" x2="1715.61" y2="473.13" xlink:href="#linear-gradient"/><linearGradient id="linear-gradient-35" y1="569.94" y2="516.83" xlink:href="#linear-gradient"/><linearGradient id="linear-gradient-36" x1="1706.39" y1="569.55" x2="1715.61" y2="517.24" xlink:href="#linear-gradient"/><linearGradient id="linear-gradient-37" y1="614.05" y2="560.94" xlink:href="#linear-gradient"/><linearGradient id="linear-gradient-38" x1="1706.39" y1="613.66" x2="1715.61" y2="561.35" xlink:href="#linear-gradient"/><linearGradient id="linear-gradient-39" y1="658.16" y2="605.05" xlink:href="#linear-gradient"/><linearGradient id="linear-gradient-40" x1="1706.39" y1="657.77" x2="1715.61" y2="605.46" xlink:href="#linear-gradient"/><linearGradient id="linear-gradient-41" y1="702.27" y2="649.16" xlink:href="#linear-gradient"/><linearGradient id="linear-gradient-42" x1="1706.39" y1="701.88" x2="1715.61" y2="649.57" xlink:href="#linear-gradient"/><linearGradient id="linear-gradient-43" y1="746.38" y2="693.27" xlink:href="#linear-gradient"/><linearGradient id="linear-gradient-44" x1="1706.39" y1="745.99" x2="1715.61" y2="693.68" xlink:href="#linear-gradient"/><linearGradient id="linear-gradient-45" y1="790.49" y2="737.38" xlink:href="#linear-gradient"/><linearGradient id="linear-gradient-46" x1="1706.39" y1="790.11" x2="1715.61" y2="737.79" xlink:href="#linear-gradient"/><linearGradient id="linear-gradient-47" y1="834.6" y2="781.49" xlink:href="#linear-gradient"/><linearGradient id="linear-gradient-48" x1="1706.39" y1="834.22" x2="1715.61" y2="781.9" xlink:href="#linear-gradient"/><linearGradient id="linear-gradient-49" y1="878.71" y2="825.6" xlink:href="#linear-gradient"/><linearGradient id="linear-gradient-50" x1="1706.39" y1="878.33" x2="1715.61" y2="826.01" xlink:href="#linear-gradient"/><linearGradient id="linear-gradient-51" y1="922.82" y2="869.71" xlink:href="#linear-gradient"/><linearGradient id="linear-gradient-52" x1="1706.39" y1="922.44" x2="1715.61" y2="870.12" xlink:href="#linear-gradient"/><linearGradient id="linear-gradient-53" y1="966.93" y2="913.82" xlink:href="#linear-gradient"/><linearGradient id="linear-gradient-54" x1="1706.39" y1="966.55" x2="1715.61" y2="914.23" xlink:href="#linear-gradient"/></defs><title>hr</title><g class="cls-1"><g class="cls-2"><ellipse class="cls-3" cx="1173.44" cy="49.95" rx="26.56" ry="26.56"/></g><g class="cls-2"><ellipse class="cls-4" cx="1173.43" cy="49.95" rx="26.56" ry="26.56"/></g></g><g class="cls-1"><g class="cls-2"><ellipse class="cls-5" cx="1129.33" cy="49.95" rx="26.56" ry="26.56"/></g><g class="cls-2"><ellipse class="cls-6" cx="1129.32" cy="49.95" rx="26.56" ry="26.56"/></g></g><g class="cls-1"><g class="cls-2"><ellipse class="cls-7" cx="1085.22" cy="49.95" rx="26.56" ry="26.56"/></g><g class="cls-2"><ellipse class="cls-8" cx="1085.21" cy="49.95" rx="26.56" ry="26.56"/></g></g><g class="cls-1"><g class="cls-2"><ellipse class="cls-9" cx="1041.11" cy="49.95" rx="26.56" ry="26.56"/></g><g class="cls-2"><ellipse class="cls-10" cx="1041.1" cy="49.95" rx="26.56" ry="26.56"/></g></g><g class="cls-1"><g class="cls-2"><ellipse class="cls-11" cx="997" cy="49.95" rx="26.56" ry="26.56"/></g><g class="cls-2"><ellipse class="cls-12" cx="996.99" cy="49.95" rx="26.56" ry="26.56"/></g></g><g class="cls-1"><g class="cls-2"><ellipse class="cls-13" cx="952.89" cy="49.95" rx="26.56" ry="26.56"/></g><g class="cls-2"><ellipse class="cls-14" cx="952.88" cy="49.95" rx="26.56" ry="26.56"/></g></g><g class="cls-1"><g class="cls-2"><ellipse class="cls-15" cx="908.78" cy="49.95" rx="26.56" ry="26.56"/></g><g class="cls-2"><ellipse class="cls-16" cx="908.77" cy="49.95" rx="26.56" ry="26.56"/></g></g><g class="cls-1"><g class="cls-2"><ellipse class="cls-17" cx="864.67" cy="49.95" rx="26.56" ry="26.56"/></g><g class="cls-2"><ellipse class="cls-18" cx="864.66" cy="49.95" rx="26.56" ry="26.56"/></g></g><g class="cls-1"><g class="cls-2"><ellipse class="cls-19" cx="820.56" cy="49.95" rx="26.56" ry="26.56"/></g><g class="cls-2"><ellipse class="cls-20" cx="820.55" cy="49.95" rx="26.56" ry="26.56"/></g></g><g class="cls-1"><g class="cls-2"><ellipse class="cls-21" cx="776.45" cy="49.95" rx="26.56" ry="26.56"/></g><g class="cls-2"><ellipse class="cls-22" cx="776.44" cy="49.95" rx="26.56" ry="26.56"/></g></g><g class="cls-1"><g class="cls-2"><ellipse class="cls-23" cx="732.34" cy="49.95" rx="26.56" ry="26.56"/></g><g class="cls-2"><ellipse class="cls-24" cx="732.33" cy="49.95" rx="26.56" ry="26.56"/></g></g><g class="cls-1"><g class="cls-2"><ellipse class="cls-25" cx="688.23" cy="49.95" rx="26.56" ry="26.56"/></g><g class="cls-2"><ellipse class="cls-26" cx="688.22" cy="49.95" rx="26.56" ry="26.56"/></g></g><g class="cls-1"><g class="cls-2"><ellipse class="cls-27" cx="644.12" cy="49.95" rx="26.56" ry="26.56"/></g><g class="cls-2"><ellipse class="cls-28" cx="644.1" cy="49.95" rx="26.56" ry="26.56"/></g></g><g class="cls-1"><g class="cls-2"><ellipse class="cls-29" cx="600.01" cy="49.95" rx="26.56" ry="26.56"/></g><g class="cls-2"><ellipse class="cls-30" cx="599.99" cy="49.95" rx="26.56" ry="26.56"/></g></g><g class="cls-1"><g class="cls-2"><ellipse class="cls-31" cx="555.9" cy="49.95" rx="26.56" ry="26.56"/></g><g class="cls-2"><ellipse class="cls-32" cx="555.88" cy="49.95" rx="26.56" ry="26.56"/></g></g><g class="cls-1"><g class="cls-2"><ellipse class="cls-33" cx="511.78" cy="49.95" rx="26.56" ry="26.56"/></g><g class="cls-2"><ellipse class="cls-34" cx="511.77" cy="49.95" rx="26.56" ry="26.56"/></g></g><g class="cls-1"><g class="cls-2"><ellipse class="cls-35" cx="467.67" cy="49.95" rx="26.56" ry="26.56"/></g><g class="cls-2"><ellipse class="cls-36" cx="467.66" cy="49.95" rx="26.56" ry="26.56"/></g></g><g class="cls-1"><g class="cls-2"><ellipse class="cls-37" cx="423.56" cy="49.95" rx="26.56" ry="26.56"/></g><g class="cls-2"><ellipse class="cls-38" cx="423.55" cy="49.95" rx="26.56" ry="26.56"/></g></g><g class="cls-1"><g class="cls-2"><ellipse class="cls-39" cx="379.45" cy="49.95" rx="26.56" ry="26.56"/></g><g class="cls-2"><ellipse class="cls-40" cx="379.44" cy="49.95" rx="26.56" ry="26.56"/></g></g><g class="cls-1"><g class="cls-2"><ellipse class="cls-41" cx="335.34" cy="49.95" rx="26.56" ry="26.56"/></g><g class="cls-2"><ellipse class="cls-42" cx="335.33" cy="49.95" rx="26.56" ry="26.56"/></g></g><g class="cls-1"><g class="cls-2"><ellipse class="cls-43" cx="291.23" cy="49.95" rx="26.56" ry="26.56"/></g><g class="cls-2"><ellipse class="cls-44" cx="291.22" cy="49.95" rx="26.56" ry="26.56"/></g></g><g class="cls-1"><g class="cls-2"><ellipse class="cls-45" cx="247.12" cy="49.95" rx="26.56" ry="26.56"/></g><g class="cls-2"><ellipse class="cls-46" cx="247.11" cy="49.95" rx="26.56" ry="26.56"/></g></g><g class="cls-1"><g class="cls-2"><ellipse class="cls-47" cx="203.01" cy="49.95" rx="26.56" ry="26.56"/></g><g class="cls-2"><ellipse class="cls-48" cx="203" cy="49.95" rx="26.56" ry="26.56"/></g></g><g class="cls-1"><g class="cls-2"><ellipse class="cls-49" cx="158.9" cy="49.95" rx="26.56" ry="26.56"/></g><g class="cls-2"><ellipse class="cls-50" cx="158.89" cy="49.95" rx="26.56" ry="26.56"/></g></g><g class="cls-1"><g class="cls-2"><ellipse class="cls-51" cx="114.79" cy="49.95" rx="26.56" ry="26.56"/></g><g class="cls-2"><ellipse class="cls-52" cx="114.78" cy="49.95" rx="26.56" ry="26.56"/></g></g><g class="cls-1"><g class="cls-2"><ellipse class="cls-53" cx="70.68" cy="49.95" rx="26.56" ry="26.56"/></g><g class="cls-2"><ellipse class="cls-54" cx="70.67" cy="49.95" rx="26.56" ry="26.56"/></g></g><g class="cls-1"><g class="cls-2"><ellipse class="cls-55" cx="26.57" cy="49.95" rx="26.56" ry="26.56"/></g><g class="cls-2"><ellipse class="cls-56" cx="26.56" cy="49.95" rx="26.56" ry="26.56"/></g></g></svg>