<svg id="Layer_1" data-name="Layer 1" xmlns="http://www.w3.org/2000/svg" xmlns:xlink="http://www.w3.org/1999/xlink" viewBox="0 0 1200 30"><defs><style>.cls-1{opacity:0.57;}.cls-2{fill:url(#linear-gradient);}.cls-3{fill:url(#linear-gradient-2);}.cls-4{fill:url(#linear-gradient-3);}.cls-5{fill:url(#linear-gradient-4);}.cls-6{fill:url(#linear-gradient-5);}.cls-7{fill:url(#linear-gradient-6);}.cls-8{fill:url(#linear-gradient-7);}.cls-9{fill:url(#linear-gradient-8);}.cls-10{fill:url(#linear-gradient-9);}.cls-11{fill:url(#linear-gradient-10);}.cls-12{fill:url(#linear-gradient-11);}.cls-13{fill:url(#linear-gradient-12);}.cls-14{fill:url(#linear-gradient-13);}.cls-15{fill:url(#linear-gradient-14);}.cls-16{fill:url(#linear-gradient-15);}.cls-17{fill:url(#linear-gradient-16);}.cls-18{fill:url(#linear-gradient-17);}.cls-19{fill:url(#linear-gradient-18);}.cls-20{fill:url(#linear-gradient-19);}.cls-21{fill:url(#linear-gradient-20);}.cls-22{fill:url(#linear-gradient-21);}.cls-23{fill:url(#linear-gradient-22);}.cls-24{fill:url(#linear-gradient-23);}.cls-25{fill:url(#linear-gradient-24);}.cls-26{fill:url(#linear-gradient-25);}.cls-27{fill:url(#linear-gradient-26);}.cls-28{fill:url(#linear-gradient-27);}.cls-29{fill:url(#linear-gradient-28);}.cls-30{fill:url(#linear-gradient-29);}.cls-31{fill:url(#linear-gradient-30);}.cls-32{fill:url(#linear-gradient-31);}.cls-33{fill:url(#linear-gradient-32);}.cls-34{fill:url(#linear-gradient-33);}.cls-35{fill:url(#linear-gradient-34);}.cls-36{fill:url(#linear-gradient-35);}.cls-37{fill:url(#linear-gradient-36);}.cls-38{fill:url(#linear-gradient-37);}.cls-39{fill:url(#linear-gradient-38);}.cls-40{fill:url(#linear-gradient-39);}.cls-41{fill:url(#linear-gradient-40);}.cls-42{fill:url(#linear-gradient-41);}.cls-43{fill:url(#linear-gradient-42);}.cls-44{fill:url(#linear-gradient-43);}.cls-45{fill:url(#linear-gradient-44);}.cls-46{fill:url(#linear-gradient-45);}.cls-47{fill:url(#linear-gradient-46);}.cls-48{fill:url(#linear-gradient-47);}.cls-49{fill:url(#linear-gradient-48);}</style><linearGradient id="linear-gradient" x1="1757.19" y1="1204.7" x2="1757.19" y2="1179.7" gradientTransform="translate(-643.69 -1177.2)" gradientUnits="userSpaceOnUse"><stop offset="0" stop-color="#f06"/><stop offset="1" stop-color="#f6f"/></linearGradient><linearGradient id="linear-gradient-2" x1="1755.02" y1="1204.51" x2="1759.36" y2="1179.89" xlink:href="#linear-gradient"/><linearGradient id="linear-gradient-3" x1="1862" y1="931.99" x2="1862" y2="907" gradientTransform="translate(-1698.5 -904.5)" xlink:href="#linear-gradient"/><linearGradient id="linear-gradient-4" x1="1859.83" y1="931.81" x2="1864.17" y2="907.19" gradientTransform="translate(-1698.5 -904.5)" xlink:href="#linear-gradient"/><linearGradient id="linear-gradient-5" x1="1157.19" y1="1204.7" x2="1157.19" y2="1179.7" xlink:href="#linear-gradient"/><linearGradient id="linear-gradient-6" x1="1155.02" y1="1204.51" x2="1159.36" y2="1179.89" xlink:href="#linear-gradient"/><linearGradient id="linear-gradient-7" x1="2826.29" y1="1249.99" x2="2826.29" y2="1225" gradientTransform="translate(-2612.79 -1222.5)" xlink:href="#linear-gradient"/><linearGradient id="linear-gradient-8" x1="2824.12" y1="1249.81" x2="2828.46" y2="1225.19" gradientTransform="translate(-2612.79 -1222.5)" xlink:href="#linear-gradient"/><linearGradient id="linear-gradient-9" x1="792.91" y1="886.7" x2="792.91" y2="861.7" gradientTransform="translate(270.59 -859.2)" xlink:href="#linear-gradient"/><linearGradient id="linear-gradient-10" x1="790.74" y1="886.51" x2="795.08" y2="861.89" gradientTransform="translate(270.59 -859.2)" xlink:href="#linear-gradient"/><linearGradient id="linear-gradient-11" x1="2162" y1="931.99" x2="2162" y2="907" gradientTransform="translate(-1698.5 -904.5)" xlink:href="#linear-gradient"/><linearGradient id="linear-gradient-12" x1="2159.83" y1="931.81" x2="2164.17" y2="907.19" gradientTransform="translate(-1698.5 -904.5)" xlink:href="#linear-gradient"/><linearGradient id="linear-gradient-13" x1="1457.19" y1="1204.7" x2="1457.19" y2="1179.7" xlink:href="#linear-gradient"/><linearGradient id="linear-gradient-14" x1="1455.02" y1="1204.51" x2="1459.36" y2="1179.89" xlink:href="#linear-gradient"/><linearGradient id="linear-gradient-15" x1="2797.71" y1="931.99" x2="2797.71" y2="907" gradientTransform="translate(-2034.21 -904.5)" xlink:href="#linear-gradient"/><linearGradient id="linear-gradient-16" x1="2795.54" y1="931.81" x2="2799.88" y2="907.19" gradientTransform="translate(-2034.21 -904.5)" xlink:href="#linear-gradient"/><linearGradient id="linear-gradient-17" x1="1657.19" y1="1204.7" x2="1657.19" y2="1179.7" xlink:href="#linear-gradient"/><linearGradient id="linear-gradient-18" x1="1655.02" y1="1204.51" x2="1659.36" y2="1179.89" xlink:href="#linear-gradient"/><linearGradient id="linear-gradient-19" x1="1962" y1="931.99" x2="1962" y2="907" gradientTransform="translate(-1698.5 -904.5)" xlink:href="#linear-gradient"/><linearGradient id="linear-gradient-20" x1="1959.83" y1="931.81" x2="1964.17" y2="907.19" gradientTransform="translate(-1698.5 -904.5)" xlink:href="#linear-gradient"/><linearGradient id="linear-gradient-21" x1="1057.19" y1="1204.7" x2="1057.19" y2="1179.7" xlink:href="#linear-gradient"/><linearGradient id="linear-gradient-22" x1="1055.02" y1="1204.51" x2="1059.36" y2="1179.89" xlink:href="#linear-gradient"/><linearGradient id="linear-gradient-23" x1="2726.29" y1="1249.99" x2="2726.29" y2="1225" gradientTransform="translate(-2612.79 -1222.5)" xlink:href="#linear-gradient"/><linearGradient id="linear-gradient-24" x1="2724.12" y1="1249.81" x2="2728.46" y2="1225.19" gradientTransform="translate(-2612.79 -1222.5)" xlink:href="#linear-gradient"/><linearGradient id="linear-gradient-25" x1="892.91" y1="886.7" x2="892.91" y2="861.7" gradientTransform="translate(270.59 -859.2)" xlink:href="#linear-gradient"/><linearGradient id="linear-gradient-26" x1="890.74" y1="886.51" x2="895.08" y2="861.89" gradientTransform="translate(270.59 -859.2)" xlink:href="#linear-gradient"/><linearGradient id="linear-gradient-27" x1="2262" y1="931.99" x2="2262" y2="907" gradientTransform="translate(-1698.5 -904.5)" xlink:href="#linear-gradient"/><linearGradient id="linear-gradient-28" x1="2259.83" y1="931.81" x2="2264.17" y2="907.19" gradientTransform="translate(-1698.5 -904.5)" xlink:href="#linear-gradient"/><linearGradient id="linear-gradient-29" x1="1357.19" y1="1204.7" x2="1357.19" y2="1179.7" xlink:href="#linear-gradient"/><linearGradient id="linear-gradient-30" x1="1355.02" y1="1204.51" x2="1359.36" y2="1179.89" xlink:href="#linear-gradient"/><linearGradient id="linear-gradient-31" x1="2897.71" y1="931.99" x2="2897.71" y2="907" gradientTransform="translate(-2034.21 -904.5)" xlink:href="#linear-gradient"/><linearGradient id="linear-gradient-32" x1="2895.54" y1="931.81" x2="2899.88" y2="907.19" gradientTransform="translate(-2034.21 -904.5)" xlink:href="#linear-gradient"/><linearGradient id="linear-gradient-33" x1="1762" y1="931.99" x2="1762" y2="907" gradientTransform="translate(-1698.5 -904.5)" xlink:href="#linear-gradient"/><linearGradient id="linear-gradient-34" x1="1759.83" y1="931.81" x2="1764.17" y2="907.19" gradientTransform="translate(-1698.5 -904.5)" xlink:href="#linear-gradient"/><linearGradient id="linear-gradient-35" x1="1257.19" y1="1204.7" x2="1257.19" y2="1179.7" xlink:href="#linear-gradient"/><linearGradient id="linear-gradient-36" x1="1255.02" y1="1204.51" x2="1259.36" y2="1179.89" xlink:href="#linear-gradient"/><linearGradient id="linear-gradient-37" x1="2926.29" y1="1249.99" x2="2926.29" y2="1225" gradientTransform="translate(-2612.79 -1222.5)" xlink:href="#linear-gradient"/><linearGradient id="linear-gradient-38" x1="2924.12" y1="1249.81" x2="2928.46" y2="1225.19" gradientTransform="translate(-2612.79 -1222.5)" xlink:href="#linear-gradient"/><linearGradient id="linear-gradient-39" x1="692.91" y1="886.7" x2="692.91" y2="861.7" gradientTransform="translate(270.59 -859.2)" xlink:href="#linear-gradient"/><linearGradient id="linear-gradient-40" x1="690.74" y1="886.51" x2="695.08" y2="861.89" gradientTransform="translate(270.59 -859.2)" xlink:href="#linear-gradient"/><linearGradient id="linear-gradient-41" x1="2062" y1="931.99" x2="2062" y2="907" gradientTransform="translate(-1698.5 -904.5)" xlink:href="#linear-gradient"/><linearGradient id="linear-gradient-42" x1="2059.83" y1="931.81" x2="2064.17" y2="907.19" gradientTransform="translate(-1698.5 -904.5)" xlink:href="#linear-gradient"/><linearGradient id="linear-gradient-43" x1="1557.19" y1="1204.7" x2="1557.19" y2="1179.7" xlink:href="#linear-gradient"/><linearGradient id="linear-gradient-44" x1="1555.02" y1="1204.51" x2="1559.36" y2="1179.89" xlink:href="#linear-gradient"/><linearGradient id="linear-gradient-45" x1="2697.71" y1="931.99" x2="2697.71" y2="907" gradientTransform="translate(-2034.21 -904.5)" xlink:href="#linear-gradient"/><linearGradient id="linear-gradient-46" x1="2695.54" y1="931.81" x2="2699.88" y2="907.19" gradientTransform="translate(-2034.21 -904.5)" xlink:href="#linear-gradient"/><linearGradient id="linear-gradient-47" x1="657.19" y1="1204.7" x2="657.19" y2="1179.7" xlink:href="#linear-gradient"/><linearGradient id="linear-gradient-48" x1="655.02" y1="1204.51" x2="659.36" y2="1179.89" xlink:href="#linear-gradient"/></defs><g class="cls-1"><circle class="cls-2" cx="1113.5" cy="15" r="12.5"/></g><g class="cls-1"><circle class="cls-3" cx="1113.5" cy="15" r="12.5"/></g><g class="cls-1"><circle class="cls-4" cx="163.5" cy="15" r="12.5"/></g><g class="cls-1"><circle class="cls-5" cx="163.5" cy="15" r="12.5"/></g><g class="cls-1"><circle class="cls-6" cx="513.5" cy="15" r="12.5"/></g><g class="cls-1"><circle class="cls-7" cx="513.5" cy="15" r="12.5"/></g><g class="cls-1"><circle class="cls-8" cx="213.5" cy="15" r="12.5"/></g><g class="cls-1"><circle class="cls-9" cx="213.5" cy="15" r="12.5"/></g><g class="cls-1"><circle class="cls-10" cx="1063.5" cy="15" r="12.5"/></g><g class="cls-1"><circle class="cls-11" cx="1063.5" cy="15" r="12.5"/></g><g class="cls-1"><circle class="cls-12" cx="463.5" cy="15" r="12.5"/></g><g class="cls-1"><circle class="cls-13" cx="463.5" cy="15" r="12.5"/></g><g class="cls-1"><circle class="cls-14" cx="813.5" cy="15" r="12.5"/></g><g class="cls-1"><circle class="cls-15" cx="813.5" cy="15" r="12.5"/></g><g class="cls-1"><circle class="cls-16" cx="763.5" cy="15" r="12.5"/></g><g class="cls-1"><circle class="cls-17" cx="763.5" cy="15" r="12.5"/></g><g class="cls-1"><circle class="cls-18" cx="1013.5" cy="15" r="12.5"/></g><g class="cls-1"><circle class="cls-19" cx="1013.5" cy="15" r="12.5"/></g><g class="cls-1"><circle class="cls-20" cx="263.5" cy="15" r="12.5"/></g><g class="cls-1"><circle class="cls-21" cx="263.5" cy="15" r="12.5"/></g><g class="cls-1"><circle class="cls-22" cx="413.5" cy="15" r="12.5"/></g><g class="cls-1"><circle class="cls-23" cx="413.5" cy="15" r="12.5"/></g><g class="cls-1"><circle class="cls-24" cx="113.5" cy="15" r="12.5"/></g><g class="cls-1"><circle class="cls-25" cx="113.5" cy="15" r="12.5"/></g><g class="cls-1"><circle class="cls-26" cx="1163.5" cy="15" r="12.5"/></g><g class="cls-1"><circle class="cls-27" cx="1163.5" cy="15" r="12.5"/></g><g class="cls-1"><circle class="cls-28" cx="563.5" cy="15" r="12.5"/></g><g class="cls-1"><circle class="cls-29" cx="563.5" cy="15" r="12.5"/></g><g class="cls-1"><circle class="cls-30" cx="713.5" cy="15" r="12.5"/></g><g class="cls-1"><circle class="cls-31" cx="713.5" cy="15" r="12.5"/></g><g class="cls-1"><circle class="cls-32" cx="863.5" cy="15" r="12.5"/></g><g class="cls-1"><circle class="cls-33" cx="863.5" cy="15" r="12.5"/></g><g class="cls-1"><circle class="cls-34" cx="63.5" cy="15" r="12.5"/></g><g class="cls-1"><circle class="cls-35" cx="63.5" cy="15" r="12.5"/></g><g class="cls-1"><circle class="cls-36" cx="613.5" cy="15" r="12.5"/></g><g class="cls-1"><circle class="cls-37" cx="613.5" cy="15" r="12.5"/></g><g class="cls-1"><circle class="cls-38" cx="313.5" cy="15" r="12.5"/></g><g class="cls-1"><circle class="cls-39" cx="313.5" cy="15" r="12.5"/></g><g class="cls-1"><circle class="cls-40" cx="963.5" cy="15" r="12.5"/></g><g class="cls-1"><circle class="cls-41" cx="963.5" cy="15" r="12.5"/></g><g class="cls-1"><circle class="cls-42" cx="363.5" cy="15" r="12.5"/></g><g class="cls-1"><circle class="cls-43" cx="363.5" cy="15" r="12.5"/></g><g class="cls-1"><circle class="cls-44" cx="913.5" cy="15" r="12.5"/></g><g class="cls-1"><circle class="cls-45" cx="913.5" cy="15" r="12.5"/></g><g class="cls-1"><circle class="cls-46" cx="663.5" cy="15" r="12.5"/></g><g class="cls-1"><circle class="cls-47" cx="663.5" cy="15" r="12.5"/></g><g class="cls-1"><circle class="cls-48" cx="13.5" cy="15" r="12.5"/></g><g class="cls-1"><circle class="cls-49" cx="13.5" cy="15" r="12.5"/></g></svg>