<svg id="Layer_1" data-name="Layer 1" xmlns="http://www.w3.org/2000/svg" viewBox="0 0 1200 30"><defs><style>.cls-1{opacity:0.57;}.cls-2{fill:#f06;}</style></defs><g class="cls-1"><circle class="cls-2" cx="1113.5" cy="15" r="12.5"/></g><g class="cls-1"><circle class="cls-2" cx="1113.5" cy="15" r="12.5"/></g><g class="cls-1"><circle class="cls-2" cx="163.5" cy="15" r="12.5"/></g><g class="cls-1"><circle class="cls-2" cx="163.5" cy="15" r="12.5"/></g><g class="cls-1"><circle class="cls-2" cx="513.5" cy="15" r="12.5"/></g><g class="cls-1"><circle class="cls-2" cx="513.5" cy="15" r="12.5"/></g><g class="cls-1"><circle class="cls-2" cx="213.5" cy="15" r="12.5"/></g><g class="cls-1"><circle class="cls-2" cx="213.5" cy="15" r="12.5"/></g><g class="cls-1"><circle class="cls-2" cx="1063.5" cy="15" r="12.5"/></g><g class="cls-1"><circle class="cls-2" cx="1063.5" cy="15" r="12.5"/></g><g class="cls-1"><circle class="cls-2" cx="463.5" cy="15" r="12.5"/></g><g class="cls-1"><circle class="cls-2" cx="463.5" cy="15" r="12.5"/></g><g class="cls-1"><circle class="cls-2" cx="813.5" cy="15" r="12.5"/></g><g class="cls-1"><circle class="cls-2" cx="813.5" cy="15" r="12.5"/></g><g class="cls-1"><circle class="cls-2" cx="763.5" cy="15" r="12.5"/></g><g class="cls-1"><circle class="cls-2" cx="763.5" cy="15" r="12.5"/></g><g class="cls-1"><circle class="cls-2" cx="1013.5" cy="15" r="12.5"/></g><g class="cls-1"><circle class="cls-2" cx="1013.5" cy="15" r="12.5"/></g><g class="cls-1"><circle class="cls-2" cx="263.5" cy="15" r="12.5"/></g><g class="cls-1"><circle class="cls-2" cx="263.5" cy="15" r="12.5"/></g><g class="cls-1"><circle class="cls-2" cx="413.5" cy="15" r="12.5"/></g><g class="cls-1"><circle class="cls-2" cx="413.5" cy="15" r="12.5"/></g><g class="cls-1"><circle class="cls-2" cx="113.5" cy="15" r="12.5"/></g><g class="cls-1"><circle class="cls-2" cx="113.5" cy="15" r="12.5"/></g><g class="cls-1"><circle class="cls-2" cx="1163.5" cy="15" r="12.5"/></g><g class="cls-1"><circle class="cls-2" cx="1163.5" cy="15" r="12.5"/></g><g class="cls-1"><circle class="cls-2" cx="563.5" cy="15" r="12.5"/></g><g class="cls-1"><circle class="cls-2" cx="563.5" cy="15" r="12.5"/></g><g class="cls-1"><circle class="cls-2" cx="713.5" cy="15" r="12.5"/></g><g class="cls-1"><circle class="cls-2" cx="713.5" cy="15" r="12.5"/></g><g class="cls-1"><circle class="cls-2" cx="863.5" cy="15" r="12.5"/></g><g class="cls-1"><circle class="cls-2" cx="863.5" cy="15" r="12.5"/></g><g class="cls-1"><circle class="cls-2" cx="63.5" cy="15" r="12.5"/></g><g class="cls-1"><circle class="cls-2" cx="63.5" cy="15" r="12.5"/></g><g class="cls-1"><circle class="cls-2" cx="613.5" cy="15" r="12.5"/></g><g class="cls-1"><circle class="cls-2" cx="613.5" cy="15" r="12.5"/></g><g class="cls-1"><circle class="cls-2" cx="313.5" cy="15" r="12.5"/></g><g class="cls-1"><circle class="cls-2" cx="313.5" cy="15" r="12.5"/></g><g class="cls-1"><circle class="cls-2" cx="963.5" cy="15" r="12.5"/></g><g class="cls-1"><circle class="cls-2" cx="963.5" cy="15" r="12.5"/></g><g class="cls-1"><circle class="cls-2" cx="363.5" cy="15" r="12.5"/></g><g class="cls-1"><circle class="cls-2" cx="363.5" cy="15" r="12.5"/></g><g class="cls-1"><circle class="cls-2" cx="913.5" cy="15" r="12.5"/></g><g class="cls-1"><circle class="cls-2" cx="913.5" cy="15" r="12.5"/></g><g class="cls-1"><circle class="cls-2" cx="663.5" cy="15" r="12.5"/></g><g class="cls-1"><circle class="cls-2" cx="663.5" cy="15" r="12.5"/></g><g class="cls-1"><circle class="cls-2" cx="13.5" cy="15" r="12.5"/></g><g class="cls-1"><circle class="cls-2" cx="13.5" cy="15" r="12.5"/></g></svg>