<svg id="Layer_1" data-name="Layer 1" xmlns="http://www.w3.org/2000/svg" xmlns:xlink="http://www.w3.org/1999/xlink" viewBox="0 0 3000 3000"><defs><style>.cls-1{fill:none;}.cls-2{clip-path:url(#clip-path);}.cls-3{fill:#f06;}.cls-4{opacity:0.57;}.cls-5{clip-path:url(#clip-path-3);}.cls-6{clip-path:url(#clip-path-4);}.cls-7{fill:url(#linear-gradient);}.cls-8{clip-path:url(#clip-path-5);}.cls-9{clip-path:url(#clip-path-6);}.cls-10{fill:url(#linear-gradient-2);}.cls-11{clip-path:url(#clip-path-7);}.cls-12{clip-path:url(#clip-path-8);}.cls-13{fill:url(#linear-gradient-3);}.cls-14{clip-path:url(#clip-path-9);}.cls-15{clip-path:url(#clip-path-10);}.cls-16{fill:url(#linear-gradient-4);}.cls-17{clip-path:url(#clip-path-11);}.cls-18{clip-path:url(#clip-path-12);}.cls-19{fill:url(#linear-gradient-5);}.cls-20{clip-path:url(#clip-path-13);}.cls-21{clip-path:url(#clip-path-14);}.cls-22{fill:url(#linear-gradient-6);}.cls-23{clip-path:url(#clip-path-15);}.cls-24{clip-path:url(#clip-path-16);}.cls-25{fill:url(#linear-gradient-7);}.cls-26{clip-path:url(#clip-path-17);}.cls-27{clip-path:url(#clip-path-18);}.cls-28{fill:url(#linear-gradient-8);}.cls-29{clip-path:url(#clip-path-19);}.cls-30{clip-path:url(#clip-path-20);}.cls-31{fill:url(#linear-gradient-9);}.cls-32{clip-path:url(#clip-path-21);}.cls-33{clip-path:url(#clip-path-22);}.cls-34{fill:url(#linear-gradient-10);}.cls-35{clip-path:url(#clip-path-23);}.cls-36{clip-path:url(#clip-path-24);}.cls-37{fill:url(#linear-gradient-11);}.cls-38{clip-path:url(#clip-path-25);}.cls-39{clip-path:url(#clip-path-26);}.cls-40{fill:url(#linear-gradient-12);}.cls-41{clip-path:url(#clip-path-27);}.cls-42{clip-path:url(#clip-path-28);}.cls-43{fill:url(#linear-gradient-13);}.cls-44{clip-path:url(#clip-path-29);}.cls-45{clip-path:url(#clip-path-30);}.cls-46{fill:url(#linear-gradient-14);}.cls-47{clip-path:url(#clip-path-31);}.cls-48{clip-path:url(#clip-path-32);}.cls-49{fill:url(#linear-gradient-15);}.cls-50{clip-path:url(#clip-path-33);}.cls-51{clip-path:url(#clip-path-34);}.cls-52{fill:url(#linear-gradient-16);}.cls-53{clip-path:url(#clip-path-35);}.cls-54{clip-path:url(#clip-path-36);}.cls-55{fill:url(#linear-gradient-17);}.cls-56{clip-path:url(#clip-path-37);}.cls-57{clip-path:url(#clip-path-38);}.cls-58{fill:url(#linear-gradient-18);}.cls-59{fill:#cfc;}</style><clipPath id="clip-path"><rect class="cls-1" width="3000" height="3000"/></clipPath><clipPath id="clip-path-3"><rect class="cls-1" x="-723.87" y="2796.04" width="948.22" height="948.22"/></clipPath><clipPath id="clip-path-4"><path class="cls-1" d="M-585,2934.86c185.13-185.13,485.32-185.09,670.49.08s185.2,485.36.07,670.49-485.32,185.09-670.49-.08S-770.17,3120-585,2934.86"/></clipPath><linearGradient id="linear-gradient" y1="3000" x2="1" y2="3000" gradientTransform="matrix(-948.11, 0, 0, 948.11, 224.48, -2841056.61)" gradientUnits="userSpaceOnUse"><stop offset="0" stop-color="#909"/><stop offset="1" stop-color="#fff"/></linearGradient><clipPath id="clip-path-5"><rect class="cls-1" x="-723.72" y="2795.88" width="948.22" height="948.22"/></clipPath><clipPath id="clip-path-6"><path class="cls-1" d="M-584.89,2934.71c185.13-185.13,485.32-185.1,670.49.08s185.2,485.36.08,670.49-485.32,185.09-670.5-.08-185.2-485.36-.07-670.49"/></clipPath><linearGradient id="linear-gradient-2" y1="3000" y2="3000" gradientTransform="matrix(-948.27, 0, 0, 948.27, 224.72, -2841552.05)" xlink:href="#linear-gradient"/><clipPath id="clip-path-7"><rect class="cls-1" x="-271.24" y="2343.4" width="948.22" height="948.22"/></clipPath><clipPath id="clip-path-8"><path class="cls-1" d="M-132.41,2482.23c185.13-185.13,485.32-185.1,670.49.08s185.2,485.36.08,670.49-485.32,185.09-670.5-.08-185.2-485.36-.07-670.49"/></clipPath><linearGradient id="linear-gradient-3" y1="3000" y2="3000" gradientTransform="matrix(-948.11, 0, 0, 948.11, 677.01, -2841509.24)" xlink:href="#linear-gradient"/><clipPath id="clip-path-9"><rect class="cls-1" x="-271.08" y="2343.25" width="948.22" height="948.22"/></clipPath><clipPath id="clip-path-10"><path class="cls-1" d="M-132.26,2482.08c185.13-185.13,485.32-185.1,670.49.07s185.21,485.36.08,670.49-485.32,185.1-670.49-.07-185.21-485.36-.08-670.49"/></clipPath><linearGradient id="linear-gradient-4" y1="3000" y2="3000" gradientTransform="matrix(-948.27, 0, 0, 948.27, 677.34, -2842004.68)" xlink:href="#linear-gradient"/><clipPath id="clip-path-11"><rect class="cls-1" x="181.4" y="1890.77" width="948.21" height="948.22"/></clipPath><clipPath id="clip-path-12"><path class="cls-1" d="M320.22,2029.6c185.13-185.13,485.32-185.1,670.49.07s185.21,485.36.08,670.49-485.32,185.1-670.49-.07-185.21-485.36-.08-670.49"/></clipPath><linearGradient id="linear-gradient-5" y1="3000" y2="3000" gradientTransform="matrix(-948.11, 0, 0, 948.11, 1129.64, -2841961.88)" xlink:href="#linear-gradient"/><clipPath id="clip-path-13"><rect class="cls-1" x="181.55" y="1890.62" width="948.21" height="948.22"/></clipPath><clipPath id="clip-path-14"><path class="cls-1" d="M320.37,2029.45c185.13-185.14,485.32-185.1,670.49.07s185.21,485.36.08,670.49-485.32,185.1-670.49-.07-185.21-485.36-.08-670.49"/></clipPath><linearGradient id="linear-gradient-6" y1="3000" y2="3000" gradientTransform="matrix(-948.27, 0, 0, 948.27, 1129.88, -2842457.31)" xlink:href="#linear-gradient"/><clipPath id="clip-path-15"><rect class="cls-1" x="634.03" y="1438.14" width="948.21" height="948.22"/></clipPath><clipPath id="clip-path-16"><path class="cls-1" d="M772.85,1577c185.13-185.12,485.32-185.09,670.49.08s185.21,485.36.08,670.49-485.32,185.1-670.49-.07-185.21-485.37-.08-670.5"/></clipPath><linearGradient id="linear-gradient-7" y1="3000" y2="3000" gradientTransform="matrix(-948.11, 0, 0, 948.11, 1582.36, -2842414.51)" xlink:href="#linear-gradient"/><clipPath id="clip-path-17"><rect class="cls-1" x="634.18" y="1437.99" width="948.22" height="948.22"/></clipPath><clipPath id="clip-path-18"><path class="cls-1" d="M773,1576.81c185.13-185.13,485.31-185.09,670.48.08s185.21,485.36.08,670.49-485.32,185.1-670.49-.08-185.2-485.36-.07-670.49"/></clipPath><linearGradient id="linear-gradient-8" y1="3000" y2="3000" gradientTransform="matrix(-948.27, 0, 0, 948.27, 1582.56, -2842909.94)" xlink:href="#linear-gradient"/><clipPath id="clip-path-19"><rect class="cls-1" x="1086.66" y="985.51" width="948.22" height="948.21"/></clipPath><clipPath id="clip-path-20"><path class="cls-1" d="M1225.48,1124.33c185.13-185.13,485.32-185.09,670.5.08s185.2,485.36.07,670.49-485.32,185.09-670.49-.08-185.21-485.36-.08-670.49"/></clipPath><linearGradient id="linear-gradient-9" y1="3000" y2="3000" gradientTransform="matrix(-948.11, 0, 0, 948.11, 2035.16, -2842867.14)" xlink:href="#linear-gradient"/><clipPath id="clip-path-21"><rect class="cls-1" x="1086.81" y="985.36" width="948.22" height="948.21"/></clipPath><clipPath id="clip-path-22"><path class="cls-1" d="M1225.64,1124.18c185.13-185.13,485.32-185.09,670.49.08s185.2,485.36.07,670.49-485.31,185.09-670.49-.08-185.2-485.36-.07-670.49"/></clipPath><linearGradient id="linear-gradient-10" y1="3000" y2="3000" gradientTransform="matrix(-948.27, 0, 0, 948.27, 2035.2, -2843362.57)" xlink:href="#linear-gradient"/><clipPath id="clip-path-23"><rect class="cls-1" x="1539.29" y="532.88" width="948.22" height="948.21"/></clipPath><clipPath id="clip-path-24"><path class="cls-1" d="M1678.12,671.7c185.13-185.13,485.32-185.1,670.49.08s185.2,485.36.07,670.49-485.32,185.09-670.49-.08-185.2-485.36-.07-670.49"/></clipPath><linearGradient id="linear-gradient-11" y1="3000" y2="3000" gradientTransform="matrix(-948.11, 0, 0, 948.11, 2487.62, -2843319.77)" xlink:href="#linear-gradient"/><clipPath id="clip-path-25"><rect class="cls-1" x="1539.44" y="532.72" width="948.22" height="948.22"/></clipPath><clipPath id="clip-path-26"><path class="cls-1" d="M1678.27,671.55c185.13-185.13,485.32-185.1,670.49.07s185.21,485.36.08,670.49-485.32,185.1-670.49-.07-185.21-485.36-.08-670.49"/></clipPath><linearGradient id="linear-gradient-12" y1="3000" y2="3000" gradientTransform="matrix(-948.27, 0, 0, 948.27, 2487.52, -2843815.21)" xlink:href="#linear-gradient"/><clipPath id="clip-path-27"><rect class="cls-1" x="1991.92" y="80.24" width="948.22" height="948.22"/></clipPath><clipPath id="clip-path-28"><path class="cls-1" d="M2130.75,219.07c185.13-185.13,485.32-185.1,670.49.08s185.21,485.35.07,670.49-485.31,185.09-670.48-.08-185.21-485.36-.08-670.49"/></clipPath><linearGradient id="linear-gradient-13" y1="3000" y2="3000" gradientTransform="matrix(-948.11, 0, 0, 948.11, 2940.25, -2843772.4)" xlink:href="#linear-gradient"/><clipPath id="clip-path-29"><rect class="cls-1" x="1992.08" y="80.09" width="948.21" height="948.22"/></clipPath><clipPath id="clip-path-30"><path class="cls-1" d="M2130.9,218.92C2316,33.79,2616.22,33.82,2801.39,219s185.21,485.36.08,670.49-485.32,185.1-670.49-.07-185.21-485.36-.08-670.49"/></clipPath><linearGradient id="linear-gradient-14" y1="3000" y2="3000" gradientTransform="matrix(-948.27, 0, 0, 948.27, 2940.5, -2844267.84)" xlink:href="#linear-gradient"/><clipPath id="clip-path-31"><rect class="cls-1" x="2444.56" y="-372.39" width="948.21" height="948.22"/></clipPath><clipPath id="clip-path-32"><path class="cls-1" d="M2583.38-233.56c185.13-185.13,485.32-185.1,670.49.07S3439.08,251.87,3254,437s-485.32,185.1-670.49-.07-185.21-485.36-.08-670.49"/></clipPath><linearGradient id="linear-gradient-15" y1="3000" y2="3000" gradientTransform="matrix(-948.11, 0, 0, 948.11, 3392.55, -2844225.04)" xlink:href="#linear-gradient"/><clipPath id="clip-path-33"><rect class="cls-1" x="2444.71" y="-372.54" width="948.21" height="948.22"/></clipPath><clipPath id="clip-path-34"><path class="cls-1" d="M2583.53-233.72c185.13-185.12,485.32-185.09,670.49.08s185.21,485.36.08,670.49-485.32,185.1-670.49-.08-185.21-485.35-.08-670.49"/></clipPath><linearGradient id="linear-gradient-16" y1="3000" y2="3000" gradientTransform="matrix(-948.27, 0, 0, 948.27, 3392.7, -2844720.47)" xlink:href="#linear-gradient"/><clipPath id="clip-path-35"><rect class="cls-1" x="2897.19" y="-825.02" width="948.22" height="948.22"/></clipPath><clipPath id="clip-path-36"><path class="cls-1" d="M3036-686.2c185.13-185.12,485.32-185.09,670.49.08s185.21,485.36.08,670.49-485.32,185.1-670.49-.08S2850.88-501.06,3036-686.2"/></clipPath><linearGradient id="linear-gradient-17" y1="3000" y2="3000" gradientTransform="matrix(-948.11, 0, 0, 948.11, 3845.35, -2844677.67)" xlink:href="#linear-gradient"/><clipPath id="clip-path-37"><rect class="cls-1" x="2897.34" y="-825.17" width="948.22" height="948.21"/></clipPath><clipPath id="clip-path-38"><path class="cls-1" d="M3036.17-686.35c185.13-185.13,485.31-185.09,670.49.08s185.2,485.36.07,670.49-485.32,185.09-670.49-.08-185.2-485.36-.07-670.49"/></clipPath><linearGradient id="linear-gradient-18" y1="3000" y2="3000" gradientTransform="matrix(-948.27, 0, 0, 948.27, 3845.69, -2845173.1)" xlink:href="#linear-gradient"/></defs><title>parallel-worlds-cover</title><g class="cls-2"><rect class="cls-3" y="0.5" width="2999.13" height="2999.5"/><g class="cls-2"><g class="cls-4"><g class="cls-5"><g class="cls-6"><rect class="cls-7" x="-985.73" y="2534.17" width="1471.95" height="1471.95" transform="translate(-2385.49 781.2) rotate(-45)"/></g></g></g><g class="cls-4"><g class="cls-8"><g class="cls-9"><rect class="cls-10" x="-974.4" y="2545.2" width="1449.59" height="1449.59" transform="translate(-1920.73 448.2) rotate(-35)"/></g></g></g><g class="cls-4"><g class="cls-11"><g class="cls-12"><rect class="cls-13" x="-533.1" y="2081.54" width="1471.95" height="1471.95" transform="translate(-1932.86 968.68) rotate(-45)"/></g></g></g><g class="cls-4"><g class="cls-14"><g class="cls-15"><rect class="cls-16" x="-521.77" y="2092.57" width="1449.59" height="1449.59" transform="translate(-1579.26 625.96) rotate(-35)"/></g></g></g><g class="cls-4"><g class="cls-17"><g class="cls-18"><rect class="cls-19" x="-80.47" y="1628.91" width="1471.95" height="1471.95" transform="translate(-1480.23 1156.17) rotate(-45)"/></g></g></g><g class="cls-4"><g class="cls-20"><g class="cls-21"><rect class="cls-22" x="-69.14" y="1639.93" width="1449.59" height="1449.59" transform="translate(-1237.78 803.73) rotate(-35)"/></g></g></g><g class="cls-4"><g class="cls-23"><g class="cls-24"><rect class="cls-25" x="372.16" y="1176.27" width="1471.95" height="1471.95" transform="translate(-1027.6 1343.66) rotate(-45)"/></g></g></g><g class="cls-4"><g class="cls-26"><g class="cls-27"><rect class="cls-28" x="383.49" y="1187.3" width="1449.59" height="1449.59" transform="translate(-896.3 981.49) rotate(-35)"/></g></g></g><g class="cls-4"><g class="cls-29"><g class="cls-30"><rect class="cls-31" x="824.79" y="723.64" width="1471.95" height="1471.95" transform="translate(-574.97 1531.14) rotate(-45)"/></g></g></g><g class="cls-4"><g class="cls-32"><g class="cls-33"><rect class="cls-34" x="836.13" y="734.67" width="1449.59" height="1449.59" transform="translate(-554.83 1159.25) rotate(-35)"/></g></g></g><g class="cls-4"><g class="cls-35"><g class="cls-36"><rect class="cls-37" x="1277.43" y="271.01" width="1471.95" height="1471.95" transform="translate(-122.33 1718.63) rotate(-45)"/></g></g></g><g class="cls-4"><g class="cls-38"><g class="cls-39"><rect class="cls-40" x="1288.76" y="282.04" width="1449.59" height="1449.59" transform="translate(-213.35 1337.01) rotate(-35)"/></g></g></g><g class="cls-4"><g class="cls-41"><g class="cls-42"><rect class="cls-43" x="1730.06" y="-181.62" width="1471.95" height="1471.95" transform="translate(330.3 1906.11) rotate(-45)"/></g></g></g><g class="cls-4"><g class="cls-44"><g class="cls-45"><rect class="cls-46" x="1741.39" y="-170.59" width="1449.59" height="1449.59" transform="translate(128.13 1514.77) rotate(-35)"/></g></g></g><g class="cls-4"><g class="cls-47"><g class="cls-48"><rect class="cls-49" x="2182.69" y="-634.25" width="1471.95" height="1471.95" transform="translate(782.93 2093.6) rotate(-45)"/></g></g></g><g class="cls-4"><g class="cls-50"><g class="cls-51"><rect class="cls-52" x="2194.02" y="-623.23" width="1449.59" height="1449.59" transform="translate(469.6 1692.53) rotate(-35)"/></g></g></g><g class="cls-4"><g class="cls-53"><g class="cls-54"><rect class="cls-55" x="2635.32" y="-1086.89" width="1471.95" height="1471.95" transform="translate(1235.56 2281.09) rotate(-45)"/></g></g></g><g class="cls-4"><g class="cls-56"><g class="cls-57"><rect class="cls-58" x="2646.65" y="-1075.86" width="1449.59" height="1449.59" transform="translate(811.08 1870.29) rotate(-35)"/></g></g></g></g><path class="cls-59" d="M1009.26,2742.57a3.38,3.38,0,0,1-.22,1.16l-11.88,39.68c-.56,1.94-1.68,2.9-3.35,2.9s-2.78-1-3.35-2.9l-4.7-15.55-4.7,15.54q-.84,2.91-3.33,2.91c-1.66,0-2.77-1-3.33-2.9l-11.87-39.68a4.66,4.66,0,0,1-.22-1.16c0-2.11,1.14-3.17,3.44-3.17a2.91,2.91,0,0,1,3,2.39l8.94,29.55,4.53-15.15q-3.93-13-3.89-13.62,0-3.17,3.49-3.17a3,3,0,0,1,3.12,2.36l8.81,29.42,8.89-29.42a3,3,0,0,1,3.09-2.36Q1009.27,2739.4,1009.26,2742.57Z"/><path class="cls-59" d="M1066.8,2783q0,3.34-3.35,3.34h-13.39c-2.23,0-3.35-1.11-3.35-3.35V2746.1h-10q-3.35,0-3.35-3.35t3.35-3.35h13.43c2.2,0,3.31,1.12,3.31,3.35v36.87h10C1065.68,2779.62,1066.8,2780.73,1066.8,2783Zm-11.65-58.57a4.68,4.68,0,0,1-1.5,3.53,5.23,5.23,0,0,1-7.19,0,4.71,4.71,0,0,1-1.49-3.53,5.09,5.09,0,0,1,5.09-5.08,5.1,5.1,0,0,1,5.09,5.08Z"/><path class="cls-59" d="M1137.81,2776.19a3.92,3.92,0,0,1-.71,2.06,17.17,17.17,0,0,1-7,5.92,20.67,20.67,0,0,1-9,2.14,20.11,20.11,0,0,1-20.09-20.1V2746.1h-6.69q-3.35,0-3.35-3.35t3.35-3.35h6.69v-16.74q0-3.35,3.35-3.34t3.35,3.34v16.74h16.74q3.34,0,3.34,3.35t-3.34,3.35h-16.74v20.11a13.42,13.42,0,0,0,13.39,13.41,11.93,11.93,0,0,0,6.52-1.75,30.62,30.62,0,0,0,3.88-3.28c1.19-1.17,2.16-1.76,2.9-1.76a3.44,3.44,0,0,1,2.41,1A3.15,3.15,0,0,1,1137.81,2776.19Z"/><path class="cls-59" d="M1199.81,2783c0,2.24-1.12,3.35-3.35,3.35s-3.35-1.11-3.35-3.35V2759.5a13.39,13.39,0,0,0-26.78,0V2783c0,2.24-1.11,3.35-3.34,3.35s-3.35-1.11-3.35-3.35v-60.29c0-2.24,1.11-3.35,3.35-3.35s3.34,1.11,3.34,3.34v21.88a20.09,20.09,0,0,1,33.48,15Z"/><path class="cls-59" d="M1330.59,2752.82a42.75,42.75,0,0,1-5.67,21.84q-6.69,11.65-17.76,11.65t-17.77-11.65a45,45,0,0,1,0-43.69q6.7-11.66,17.77-11.65t17.76,11.65A42.81,42.81,0,0,1,1330.59,2752.82Zm-6.69,0a39.34,39.34,0,0,0-1.48-11,28.19,28.19,0,0,0-5.4-10.46q-4.45-5.35-9.86-5.36t-9.87,5.36a29.1,29.1,0,0,0-5.4,10.46,41.78,41.78,0,0,0,0,22,28.11,28.11,0,0,0,5.4,10.46q4.47,5.35,9.87,5.36t9.86-5.36a29,29,0,0,0,5.4-10.46A39.32,39.32,0,0,0,1323.9,2752.82Z"/><path class="cls-59" d="M1394.91,2776.19a3.92,3.92,0,0,1-.71,2.06,17.17,17.17,0,0,1-7,5.92,20.67,20.67,0,0,1-9,2.14,20.13,20.13,0,0,1-20.09-20.1v-43.54c0-2.24,1.12-3.35,3.35-3.35s3.35,1.11,3.35,3.35v43.55a13.42,13.42,0,0,0,13.39,13.4,12.71,12.71,0,0,0,8.68-3.39c2.54-2.26,4.08-3.4,4.62-3.4a3.44,3.44,0,0,1,2.41,1A3.15,3.15,0,0,1,1394.91,2776.19Z"/><path class="cls-59" d="M1459.19,2776.19a3.86,3.86,0,0,1-.72,2.06,17,17,0,0,1-7,5.92,20.64,20.64,0,0,1-9,2.14,20.11,20.11,0,0,1-20.08-20.1v-43.54c0-2.24,1.11-3.35,3.35-3.35s3.34,1.11,3.34,3.35v43.55a13.42,13.42,0,0,0,13.39,13.4,12.73,12.73,0,0,0,8.69-3.39c2.54-2.26,4.08-3.4,4.62-3.4a3.45,3.45,0,0,1,2.41,1A3.15,3.15,0,0,1,1459.19,2776.19Z"/><path class="cls-59" d="M1516.72,2783q0,3.34-3.34,3.34H1500c-2.23,0-3.34-1.11-3.34-3.35V2746.1h-10.05q-3.35,0-3.34-3.35t3.34-3.35H1500q3.3,0,3.3,3.35v36.87h10.05C1515.61,2779.62,1516.72,2780.73,1516.72,2783Zm-11.65-58.57a4.71,4.71,0,0,1-1.49,3.53,5.23,5.23,0,0,1-7.19,0,4.67,4.67,0,0,1-1.49-3.53,5.09,5.09,0,0,1,10.17,0Z"/><path class="cls-59" d="M1587.74,2772.84a3.87,3.87,0,0,1-.54,1.84,21.82,21.82,0,0,1-9.24,8.55,25.91,25.91,0,0,1-12.27,3.08,24.76,24.76,0,0,1-17.32-6.65,22.49,22.49,0,0,1,0-33.6,24.77,24.77,0,0,1,17.32-6.66,24.41,24.41,0,0,1,7.63,1.3,32.44,32.44,0,0,1,8.88,4.68q5.49,4,5.49,7.64a3,3,0,0,1-1.74,2.72l-33.83,18.17a18.09,18.09,0,0,0,13.57,5.71,17.82,17.82,0,0,0,14-6l1.87-2.46a3.21,3.21,0,0,1,5.14-.66A3.17,3.17,0,0,1,1587.74,2772.84Zm-8.41-21.1a18.18,18.18,0,0,0-13.65-5.64,18.5,18.5,0,0,0-12.58,4.68,15.42,15.42,0,0,0-5.58,12,15.23,15.23,0,0,0,1,5.43Z"/><path class="cls-59" d="M1716.24,2739.4a20.11,20.11,0,0,1-20.08,20.09h-15.62V2783c0,2.24-1.12,3.35-3.35,3.35s-3.35-1.11-3.35-3.35v-60.29a3.42,3.42,0,0,1,3.35-3.35h19a20.11,20.11,0,0,1,20.08,20.08Zm-6.69,0a13.42,13.42,0,0,0-13.39-13.39h-15.62v26.78h15.62a13.4,13.4,0,0,0,13.39-13.39Z"/><path class="cls-59" d="M1778.33,2783c0,2.24-1.12,3.35-3.35,3.35s-3.4-1.57-3.35-4.73a26.07,26.07,0,0,1-15.62,4.73,26.87,26.87,0,0,1-14.77-4.15q-7.54-4.83-7.54-12.61t7.54-12.6a26.88,26.88,0,0,1,14.77-4.16,26.32,26.32,0,0,1,15.62,4.69v-1.34a6.85,6.85,0,0,0-1.38-4q-4.15-6.08-14.24-6.07a22.58,22.58,0,0,0-11.47,3.3,4.13,4.13,0,0,1-2,.67,3.14,3.14,0,0,1-2.34-1.05,3.4,3.4,0,0,1-1-2.43q0-3.26,7-5.49a33.45,33.45,0,0,1,9.82-1.7,27.06,27.06,0,0,1,14.78,4.16q7.55,4.82,7.54,12.6Zm-6.7-13.41a7.8,7.8,0,0,0-3-5.86,15.66,15.66,0,0,0-6-3.26,22,22,0,0,0-6.56-.94q-10.35,0-14.41,6.35a6.31,6.31,0,0,0,0,7.43q4.05,6.34,14.41,6.35a22,22,0,0,0,6.56-.94,15.32,15.32,0,0,0,6-3.27A7.78,7.78,0,0,0,1771.63,2769.55Z"/><path class="cls-59" d="M1844.84,2776.19a3.86,3.86,0,0,1-.72,2.06,17,17,0,0,1-7,5.92,20.64,20.64,0,0,1-9,2.14,20.11,20.11,0,0,1-20.08-20.1v-43.54c0-2.24,1.11-3.35,3.35-3.35s3.34,1.11,3.34,3.35v43.55a13.42,13.42,0,0,0,13.39,13.4,12.73,12.73,0,0,0,8.69-3.39c2.54-2.26,4.08-3.4,4.62-3.4a3.45,3.45,0,0,1,2.41,1A3.15,3.15,0,0,1,1844.84,2776.19Z"/><path class="cls-59" d="M1909.07,2783c0,2.24-1.12,3.35-3.35,3.35s-3.35-1.11-3.35-3.35V2752.8a6.7,6.7,0,0,0-13.39,0V2783c0,2.24-1.11,3.35-3.35,3.35s-3.34-1.11-3.34-3.35V2752.8a6.7,6.7,0,1,0-13.39,0V2783c0,2.24-1.12,3.35-3.35,3.35s-3.35-1.11-3.35-3.35v-40.21q0-3.35,3.35-3.35a3,3,0,0,1,3.08,2,13.22,13.22,0,0,1,17,2.55,13.39,13.39,0,0,1,23.44,8.85Z"/><path class="cls-59" d="M1973.39,2772.84a3.87,3.87,0,0,1-.54,1.84,21.82,21.82,0,0,1-9.24,8.55,25.91,25.91,0,0,1-12.27,3.08,24.76,24.76,0,0,1-17.32-6.65,22.49,22.49,0,0,1,0-33.6,24.77,24.77,0,0,1,17.32-6.66,24.41,24.41,0,0,1,7.63,1.3,32.29,32.29,0,0,1,8.88,4.68q5.49,4,5.49,7.64a3,3,0,0,1-1.74,2.72l-33.83,18.17a18.09,18.09,0,0,0,13.57,5.71,17.82,17.82,0,0,0,14-6c.42-.54,1-1.36,1.87-2.46a3.21,3.21,0,0,1,5.14-.66A3.17,3.17,0,0,1,1973.39,2772.84Zm-8.41-21.1a18.17,18.17,0,0,0-13.65-5.64,18.5,18.5,0,0,0-12.58,4.68,15.42,15.42,0,0,0-5.58,12,15.23,15.23,0,0,0,1,5.43Z"/><path class="cls-59" d="M2037.66,2750.25a3.17,3.17,0,0,1-1,2.34,3.44,3.44,0,0,1-2.44,1,3.39,3.39,0,0,1-2.45-1.3q-6.17-6.2-13.08-6.2a16.76,16.76,0,0,0-16.74,16.75V2783c0,2.24-1.12,3.35-3.35,3.35s-3.34-1.11-3.34-3.35v-40.21q0-3.35,3.34-3.35a3.06,3.06,0,0,1,3.22,2.5,30.27,30.27,0,0,1,.13,4.56,22.46,22.46,0,0,1,16.74-7.06,24.15,24.15,0,0,1,10.13,2.32,18.6,18.6,0,0,1,8,6.39A3.87,3.87,0,0,1,2037.66,2750.25Z"/><path class="cls-59" d="M440.84,1091.86q0,43.64-31,74.6t-74.59,31h-82.1v123.35q0,17.63-17.59,17.62T218,1320.79V1003.91a18,18,0,0,1,17.59-17.6h99.69q43.64,0,74.59,31T440.84,1091.86Zm-35.19,0q0-29.07-20.64-49.72t-49.73-20.65h-82.1v140.74h82.1q29.09,0,49.73-20.64T405.65,1091.86Z"/><path class="cls-59" d="M767.12,1320.78q0,17.63-17.59,17.61-18.07,0-17.6-24.86-34.71,24.87-82.1,24.86-43.4,0-77.64-21.84-39.65-25.36-39.64-66.24,0-40.62,39.64-66.23,34.24-21.84,77.64-21.85,47.38,0,82.1,24.63v-7q0-10.56-7.27-20.88-21.81-31.89-74.83-31.9-30.5,0-60.28,17.36-6.1,3.51-10.55,3.52a16.53,16.53,0,0,1-12.32-5.52,17.9,17.9,0,0,1-5.28-12.78q0-17.12,36.83-28.85,28.62-8.91,51.6-8.92,43.17,0,77.65,21.84,39.63,25.35,39.64,66.21Zm-35.19-70.47q0-16.68-15.95-30.79a82.67,82.67,0,0,0-31.66-17.16,115.85,115.85,0,0,0-34.49-4.94q-54.42,0-75.76,33.38-6.33,9.87-6.33,19.51t6.33,19.52q21.34,33.38,75.76,33.38a116.17,116.17,0,0,0,34.49-4.94A80.46,80.46,0,0,0,716,1281.11Q731.94,1267,731.93,1250.31Z"/><path class="cls-59" d="M1116.62,1148.86a16.55,16.55,0,0,1-5.51,12.32,17.93,17.93,0,0,1-12.78,5.28q-6.57,0-12.91-6.81-32.37-32.6-68.72-32.6t-62.16,25.83q-25.81,25.83-25.81,62.23v105.67q0,17.63-17.59,17.61t-17.59-17.61v-211.3q0-17.61,17.59-17.62,13.38,0,16.89,13.14.93,4.21.7,23.93,36.12-37.07,88-37.07,26.73,0,53.24,12.2,28.15,12.68,42.23,33.54Q1116.61,1143.95,1116.62,1148.86Z"/><path class="cls-59" d="M1442.67,1320.78q0,17.63-17.59,17.61-18.07,0-17.6-24.86-34.71,24.87-82.09,24.86-43.41,0-77.65-21.84-39.63-25.36-39.64-66.24,0-40.62,39.64-66.23,34.24-21.84,77.65-21.85,47.37,0,82.09,24.63v-7q0-10.56-7.27-20.88-21.81-31.89-74.82-31.9-30.5,0-60.29,17.36-6.11,3.51-10.55,3.52a16.54,16.54,0,0,1-12.32-5.52,17.9,17.9,0,0,1-5.28-12.78q0-17.12,36.83-28.85,28.62-8.91,51.61-8.92,43.15,0,77.64,21.84,39.63,25.35,39.64,66.21Zm-35.19-70.47q0-16.68-16-30.79a82.67,82.67,0,0,0-31.66-17.16,115.83,115.83,0,0,0-34.48-4.94q-54.42,0-75.77,33.38-6.33,9.87-6.33,19.51t6.33,19.52q21.35,33.38,75.77,33.38a116.15,116.15,0,0,0,34.48-4.94,80.46,80.46,0,0,0,31.66-17.16Q1407.49,1267,1407.48,1250.31Z"/><path class="cls-59" d="M1792.17,1285.21q0,4.93-3.75,10.82-12.43,19.07-37.06,31.07-23.46,11.3-47.38,11.29-43.63,0-74.6-31t-31-74.64V1003.91q0-17.6,17.59-17.6t17.6,17.61v228.87q0,29.1,20.64,49.76t49.73,20.66q25.56,0,45.62-17.83t24.28-17.83a18,18,0,0,1,12.66,5.3A16.45,16.45,0,0,1,1792.17,1285.21Z"/><path class="cls-59" d="M2130,1285.21q0,4.93-3.75,10.82-12.43,19.07-37.07,31.07-23.45,11.3-47.38,11.29-43.62,0-74.59-31t-31-74.64V1003.91q0-17.6,17.59-17.6t17.59,17.61v228.87q0,29.1,20.64,49.76t49.73,20.66q25.56,0,45.63-17.83t24.27-17.83a18,18,0,0,1,12.67,5.3A16.48,16.48,0,0,1,2130,1285.21Z"/><path class="cls-59" d="M2467.72,1267.6a20.33,20.33,0,0,1-2.81,9.65q-16.18,28.21-48.56,44.91a136.22,136.22,0,0,1-64.5,16.23q-52.79,0-91-35-39.65-36.15-39.64-88.28,0-52.37,39.64-88.28,38.22-35,91-35a129.21,129.21,0,0,1,40.11,6.81q23.45,7.74,46.68,24.63,28.84,21.1,28.85,40.11,0,9.38-9.15,14.31l-177.8,95.47q28.85,30,71.31,30,45.27,0,73.42-31.57,3.29-4.25,9.85-13t14.31-8.72a18,18,0,0,1,12.66,5.29A16.44,16.44,0,0,1,2467.72,1267.6Zm-44.16-110.88q-28.61-29.67-71.75-29.67-38,0-66.12,24.6-29.31,25.77-29.31,63.26a80.67,80.67,0,0,0,5.09,28.58Z"/><path class="cls-59" d="M2805.5,1285.21q0,4.93-3.75,10.82-12.43,19.07-37.06,31.07-23.46,11.3-47.39,11.29-43.62,0-74.59-31t-31-74.64V1003.91q0-17.6,17.59-17.6t17.59,17.61v228.87q0,29.1,20.64,49.76t49.73,20.66q25.57,0,45.63-17.83t24.27-17.83a18,18,0,0,1,12.67,5.3A16.48,16.48,0,0,1,2805.5,1285.21Z"/><path class="cls-59" d="M778.61,1678.51a31.49,31.49,0,0,1-.23,3.76l-52.54,314.79q-2.8,16.88-17.75,16.88-13.32,0-17.29-15.75l-35.33-141.33-35.34,141.33q-3.74,15.76-17.28,15.75-15,0-17.76-16.88l-52.53-314.79a26.21,26.21,0,0,1-.24-3.76q0-16.65,17.72-16.65,14.69,0,17,14.81l39,233.7,31.81-127.24q3.75-15.7,17.59-15.71,13.38,0,17.6,15.78l31.81,127.19,39-233.72q2.57-14.81,17-14.81Q778.61,1661.86,778.61,1678.51Z"/><path class="cls-59" d="M1116.39,1890.68q0,51-36.13,87.11t-87,36.15q-50.91,0-87-36.15t-36.13-87.11q0-50.94,36.13-87.1t87-36.16q50.9,0,87,36.16T1116.39,1890.68Zm-35.19,0q0-36.4-25.8-62.24t-62.16-25.84q-36.36,0-62.16,25.84t-25.8,62.24q0,36.4,25.8,62.24t62.16,25.84q36.36,0,62.16-25.84T1081.2,1890.68Z"/><path class="cls-59" d="M1454.4,1824.42a16.55,16.55,0,0,1-5.51,12.31,17.94,17.94,0,0,1-12.79,5.28q-6.57,0-12.9-6.8-32.37-32.61-68.73-32.61t-62.16,25.83q-25.8,25.83-25.8,62.23v105.67q0,17.63-17.59,17.61t-17.59-17.61V1785q0-17.61,17.59-17.61,13.36,0,16.89,13.13.93,4.23.7,23.93,36.12-37.07,88-37.06,26.74,0,53.25,12.19,28.14,12.67,42.22,33.55Q1454.4,1819.49,1454.4,1824.42Z"/><path class="cls-59" d="M1792.17,1960.76q0,4.93-3.75,10.82-12.43,19.07-37.06,31.07-23.46,11.3-47.38,11.29-43.63,0-74.6-31t-31-74.64V1679.46q0-17.6,17.59-17.6t17.6,17.61v228.87q0,29.12,20.64,49.76t49.73,20.66q25.56,0,45.62-17.83t24.28-17.82a18,18,0,0,1,12.66,5.29A16.45,16.45,0,0,1,1792.17,1960.76Z"/><path class="cls-59" d="M2106.49,1996.34q0,17.61-17.59,17.6-12.9,0-16.19-11.34-1.39-4.95-1.4-22.2-31.9,33.55-76.24,33.54-48.09,0-80.45-38-31-36.39-31-85.23,0-48.6,31-85.23,32.37-38,80.45-38,44.34,0,76.24,33.3V1679.45q0-17.6,17.59-17.59t17.59,17.6Zm-35.18-105.66q.22-34.29-20.41-59.89-22.29-28.18-55.83-28.19-33.3,0-55.59,28.19-20.64,25.83-20.64,59.89,0,34.29,20.64,59.9,22.29,28.18,55.59,28.18t55.83-28.18Q2071.54,1925,2071.31,1890.68Z"/><path class="cls-59" d="M2451.3,1934.54q0,37.83-37.76,60.14-32.14,19.26-72.25,19.26a146.85,146.85,0,0,1-57.47-11.53q-31.67-13.41-44.09-37.17a19.92,19.92,0,0,1-2.58-9.18,16.07,16.07,0,0,1,5.63-12.23,18.23,18.23,0,0,1,12.66-5.18q8,0,14.78,9.2,23,30.92,71.07,30.91,47.39,0,67.56-26.11,7-9.64,7.27-18.11,0-14.34-16.42-26.57a87.64,87.64,0,0,0-30-13.64,123.73,123.73,0,0,0-31.91-3.77q-30.26,0-54.18-15-27.68-17.6-27.68-46.68,0-28.84,28.62-46.44,24.39-15,55.12-15a112.67,112.67,0,0,1,38.24,6.8q21.81,7.74,31.9,21.34,4.68,6.11,4.69,11.26a16.91,16.91,0,0,1-5.51,12.43,17.74,17.74,0,0,1-12.79,5.4q-3,0-19.35-11t-37.18-11q-31.91,0-44.8,17.36-3.75,4.69-3.75,8.91,0,16.67,29.32,23.93a93.37,93.37,0,0,0,23.45,2.58q39.4,0,70.84,19.5Q2451.31,1897.67,2451.3,1934.54Z"/></g></svg>