<svg id="Layer_1" data-name="Layer 1" xmlns="http://www.w3.org/2000/svg" xmlns:xlink="http://www.w3.org/1999/xlink" viewBox="0 0 3000 3000"><defs><style>.cls-1{fill:none;}.cls-2{fill:#f06;}.cls-3{clip-path:url(#clip-path);}.cls-4{opacity:0.57;}.cls-5{fill:url(#linear-gradient);}.cls-6{fill:url(#linear-gradient-2);}.cls-7{fill:url(#linear-gradient-3);}.cls-8{fill:url(#linear-gradient-4);}.cls-9{fill:url(#linear-gradient-5);}.cls-10{fill:url(#linear-gradient-6);}.cls-11{fill:url(#linear-gradient-7);}.cls-12{fill:url(#linear-gradient-8);}.cls-13{fill:url(#linear-gradient-9);}.cls-14{fill:url(#linear-gradient-10);}.cls-15{fill:url(#linear-gradient-11);}.cls-16{fill:url(#linear-gradient-12);}.cls-17{fill:url(#linear-gradient-13);}.cls-18{fill:url(#linear-gradient-14);}.cls-19{fill:url(#linear-gradient-15);}.cls-20{fill:url(#linear-gradient-16);}.cls-21{fill:url(#linear-gradient-17);}.cls-22{fill:url(#linear-gradient-18);}.cls-23{font-size:107.13px;letter-spacing:0.1em;}.cls-23,.cls-24{fill:#cfc;font-family:MonofurForPowerline, monofur for Powerline;}.cls-24{font-size:562.96px;letter-spacing:0.1em;}</style><clipPath id="clip-path"><rect class="cls-1" width="3000" height="3000"/></clipPath><linearGradient id="linear-gradient" x1="-2882.42" y1="-3710.34" x2="-2882.42" y2="-4658.44" gradientTransform="translate(3934.63 387.73) rotate(-90)" gradientUnits="userSpaceOnUse"><stop offset="0" stop-color="#909"/><stop offset="1" stop-color="#fff"/></linearGradient><linearGradient id="linear-gradient-2" x1="-2964.75" y1="-3717.24" x2="-2800.09" y2="-4651.11" gradientTransform="translate(3934.57 387.57) rotate(-90)" xlink:href="#linear-gradient"/><linearGradient id="linear-gradient-3" x1="-2882.42" y1="-3070.22" x2="-2882.42" y2="-4018.33" gradientTransform="translate(3747.14 -64.91) rotate(-90)" xlink:href="#linear-gradient"/><linearGradient id="linear-gradient-4" x1="-2964.75" y1="-3077.12" x2="-2800.09" y2="-4010.99" gradientTransform="translate(3747.08 -65.06) rotate(-90)" xlink:href="#linear-gradient"/><linearGradient id="linear-gradient-5" x1="-2882.42" y1="-2430.1" x2="-2882.42" y2="-3378.21" gradientTransform="translate(3559.66 -517.54) rotate(-90)" xlink:href="#linear-gradient"/><linearGradient id="linear-gradient-6" x1="-2964.75" y1="-2437" x2="-2800.09" y2="-3370.87" gradientTransform="translate(3559.59 -517.69) rotate(-90)" xlink:href="#linear-gradient"/><linearGradient id="linear-gradient-7" x1="-2882.42" y1="-1789.98" x2="-2882.42" y2="-2738.09" gradientTransform="translate(3372.17 -970.17) rotate(-90)" xlink:href="#linear-gradient"/><linearGradient id="linear-gradient-8" x1="-2964.75" y1="-1796.89" x2="-2800.09" y2="-2730.75" gradientTransform="translate(3372.11 -970.32) rotate(-90)" xlink:href="#linear-gradient"/><linearGradient id="linear-gradient-9" x1="-2882.42" y1="-1149.86" x2="-2882.42" y2="-2097.97" gradientTransform="translate(3184.68 -1422.8) rotate(-90)" xlink:href="#linear-gradient"/><linearGradient id="linear-gradient-10" x1="-2964.75" y1="-1156.77" x2="-2800.09" y2="-2090.64" gradientTransform="translate(3184.62 -1422.95) rotate(-90)" xlink:href="#linear-gradient"/><linearGradient id="linear-gradient-11" x1="-2882.42" y1="-509.74" x2="-2882.42" y2="-1457.85" gradientTransform="translate(2997.2 -1875.43) rotate(-90)" xlink:href="#linear-gradient"/><linearGradient id="linear-gradient-12" x1="-2964.75" y1="-516.65" x2="-2800.09" y2="-1450.52" gradientTransform="translate(2997.14 -1875.59) rotate(-90)" xlink:href="#linear-gradient"/><linearGradient id="linear-gradient-13" x1="-2882.42" y1="130.38" x2="-2882.42" y2="-817.73" gradientTransform="translate(2809.71 -2328.07) rotate(-90)" xlink:href="#linear-gradient"/><linearGradient id="linear-gradient-14" x1="-2964.75" y1="123.47" x2="-2800.09" y2="-810.4" gradientTransform="translate(2809.65 -2328.22) rotate(-90)" xlink:href="#linear-gradient"/><linearGradient id="linear-gradient-15" x1="-2882.42" y1="770.49" x2="-2882.42" y2="-177.62" gradientTransform="translate(2622.23 -2780.7) rotate(-90)" xlink:href="#linear-gradient"/><linearGradient id="linear-gradient-16" x1="-2964.75" y1="763.59" x2="-2800.09" y2="-170.28" gradientTransform="translate(2622.16 -2780.85) rotate(-90)" xlink:href="#linear-gradient"/><linearGradient id="linear-gradient-17" x1="-2882.42" y1="1410.61" x2="-2882.42" y2="462.5" gradientTransform="translate(2434.74 -3233.33) rotate(-90)" xlink:href="#linear-gradient"/><linearGradient id="linear-gradient-18" x1="-2964.75" y1="1403.71" x2="-2800.09" y2="469.84" gradientTransform="translate(2434.68 -3233.48) rotate(-90)" xlink:href="#linear-gradient"/></defs><rect class="cls-2" x="-0.37" y="0.5" width="2999.5" height="2999.5"/><g class="cls-3"><g class="cls-4"><ellipse class="cls-5" cx="-249.76" cy="3270.14" rx="474.05" ry="474.16" transform="translate(-2385.49 781.2) rotate(-45)"/></g><g class="cls-4"><ellipse class="cls-6" cx="-249.61" cy="3269.99" rx="474.05" ry="474.16" transform="translate(-2385.34 781.26) rotate(-45)"/></g><g class="cls-4"><ellipse class="cls-7" cx="202.87" cy="2817.51" rx="474.05" ry="474.16" transform="translate(-1932.86 968.68) rotate(-45)"/></g><g class="cls-4"><ellipse class="cls-8" cx="203.02" cy="2817.36" rx="474.05" ry="474.16" transform="translate(-1932.71 968.75) rotate(-45)"/></g><g class="cls-4"><ellipse class="cls-9" cx="655.5" cy="2364.88" rx="474.05" ry="474.16" transform="translate(-1480.23 1156.17) rotate(-45)"/></g><g class="cls-4"><ellipse class="cls-10" cx="655.66" cy="2364.73" rx="474.05" ry="474.16" transform="translate(-1480.08 1156.23) rotate(-45)"/></g><g class="cls-4"><ellipse class="cls-11" cx="1108.14" cy="1912.25" rx="474.05" ry="474.16" transform="translate(-1027.6 1343.66) rotate(-45)"/></g><g class="cls-4"><ellipse class="cls-12" cx="1108.29" cy="1912.1" rx="474.05" ry="474.16" transform="translate(-1027.45 1343.72) rotate(-45)"/></g><g class="cls-4"><ellipse class="cls-13" cx="1560.77" cy="1459.62" rx="474.05" ry="474.16" transform="translate(-574.97 1531.14) rotate(-45)"/></g><g class="cls-4"><ellipse class="cls-14" cx="1560.92" cy="1459.46" rx="474.05" ry="474.16" transform="translate(-574.81 1531.2) rotate(-45)"/></g><g class="cls-4"><ellipse class="cls-15" cx="2013.4" cy="1006.98" rx="474.05" ry="474.16" transform="translate(-122.33 1718.63) rotate(-45)"/></g><g class="cls-4"><ellipse class="cls-16" cx="2013.55" cy="1006.83" rx="474.05" ry="474.16" transform="translate(-122.18 1718.69) rotate(-45)"/></g><g class="cls-4"><ellipse class="cls-17" cx="2466.03" cy="554.35" rx="474.05" ry="474.16" transform="translate(330.3 1906.11) rotate(-45)"/></g><g class="cls-4"><ellipse class="cls-18" cx="2466.18" cy="554.2" rx="474.05" ry="474.16" transform="translate(330.45 1906.18) rotate(-45)"/></g><g class="cls-4"><ellipse class="cls-19" cx="2918.66" cy="101.72" rx="474.05" ry="474.16" transform="translate(782.93 2093.6) rotate(-45)"/></g><g class="cls-4"><ellipse class="cls-20" cx="2918.82" cy="101.57" rx="474.05" ry="474.16" transform="translate(783.08 2093.66) rotate(-45)"/></g><g class="cls-4"><ellipse class="cls-21" cx="3371.3" cy="-350.91" rx="474.05" ry="474.16" transform="translate(1235.56 2281.09) rotate(-45)"/></g><g class="cls-4"><ellipse class="cls-22" cx="3371.45" cy="-351.06" rx="474.05" ry="474.16" transform="translate(1235.71 2281.15) rotate(-45)"/></g></g><text class="cls-23" transform="translate(959 2786.27)">with Ollie Palmer</text><text class="cls-24" transform="translate(176.95 1338.16)">Parallel<tspan x="337.78" y="675.55">Worlds</tspan></text></svg>