<svg id="Layer_1" data-name="Layer 1" xmlns="http://www.w3.org/2000/svg" xmlns:xlink="http://www.w3.org/1999/xlink" viewBox="0 0 1280 1280"><defs><style>.cls-1{opacity:0.57;}.cls-2{fill:url(#linear-gradient);}.cls-3{fill:url(#linear-gradient-2);}.cls-4{fill:url(#linear-gradient-3);}.cls-5{fill:url(#linear-gradient-4);}.cls-6{fill:url(#linear-gradient-5);}.cls-7{fill:url(#linear-gradient-6);}.cls-8{fill:url(#linear-gradient-7);}.cls-9{fill:url(#linear-gradient-8);}.cls-10{fill:url(#linear-gradient-9);}.cls-11{fill:url(#linear-gradient-10);}.cls-12{fill:url(#linear-gradient-11);}.cls-13{fill:url(#linear-gradient-12);}.cls-14{fill:url(#linear-gradient-13);}.cls-15{fill:url(#linear-gradient-14);}.cls-16{fill:url(#linear-gradient-15);}.cls-17{fill:url(#linear-gradient-16);}.cls-18{fill:url(#linear-gradient-17);}.cls-19{fill:url(#linear-gradient-18);}.cls-20{fill:url(#linear-gradient-19);}.cls-21{fill:url(#linear-gradient-20);}.cls-22{fill:url(#linear-gradient-21);}.cls-23{fill:url(#linear-gradient-22);}.cls-24{fill:url(#linear-gradient-23);}.cls-25{fill:url(#linear-gradient-24);}.cls-26{fill:url(#linear-gradient-25);}.cls-27{fill:url(#linear-gradient-26);}.cls-28{fill:url(#linear-gradient-27);}.cls-29{fill:url(#linear-gradient-28);}.cls-30{fill:url(#linear-gradient-29);}.cls-31{fill:url(#linear-gradient-30);}.cls-32{fill:url(#linear-gradient-31);}.cls-33{fill:url(#linear-gradient-32);}.cls-34{fill:url(#linear-gradient-33);}.cls-35{fill:url(#linear-gradient-34);}.cls-36{fill:url(#linear-gradient-35);}.cls-37{fill:url(#linear-gradient-36);}.cls-38{fill:url(#linear-gradient-37);}.cls-39{fill:url(#linear-gradient-38);}.cls-40{fill:url(#linear-gradient-39);}.cls-41{fill:url(#linear-gradient-40);}.cls-42{fill:url(#linear-gradient-41);}.cls-43{fill:url(#linear-gradient-42);}.cls-44{fill:url(#linear-gradient-43);}.cls-45{fill:url(#linear-gradient-44);}.cls-46{fill:url(#linear-gradient-45);}.cls-47{fill:url(#linear-gradient-46);}.cls-48{fill:url(#linear-gradient-47);}.cls-49{fill:url(#linear-gradient-48);}.cls-50{fill:url(#linear-gradient-49);}.cls-51{fill:url(#linear-gradient-50);}.cls-52{fill:url(#linear-gradient-51);}.cls-53{fill:url(#linear-gradient-52);}.cls-54{fill:url(#linear-gradient-53);}.cls-55{fill:url(#linear-gradient-54);}.cls-56{fill:url(#linear-gradient-55);}.cls-57{fill:url(#linear-gradient-56);}.cls-58{fill:url(#linear-gradient-57);}.cls-59{fill:url(#linear-gradient-58);}.cls-60{fill:url(#linear-gradient-59);}.cls-61{fill:url(#linear-gradient-60);}.cls-62{fill:url(#linear-gradient-61);}.cls-63{fill:url(#linear-gradient-62);}.cls-64{fill:url(#linear-gradient-63);}.cls-65{fill:url(#linear-gradient-64);}.cls-66{fill:url(#linear-gradient-65);}.cls-67{fill:url(#linear-gradient-66);}.cls-68{fill:url(#linear-gradient-67);}.cls-69{fill:url(#linear-gradient-68);}.cls-70{fill:url(#linear-gradient-69);}.cls-71{fill:url(#linear-gradient-70);}.cls-72{fill:url(#linear-gradient-71);}.cls-73{fill:url(#linear-gradient-72);}.cls-74{fill:url(#linear-gradient-73);}.cls-75{fill:url(#linear-gradient-74);}.cls-76{fill:url(#linear-gradient-75);}.cls-77{fill:url(#linear-gradient-76);}.cls-78{fill:url(#linear-gradient-77);}.cls-79{fill:url(#linear-gradient-78);}.cls-80{fill:url(#linear-gradient-79);}.cls-81{fill:url(#linear-gradient-80);}.cls-82{fill:url(#linear-gradient-81);}.cls-83{fill:url(#linear-gradient-82);}.cls-84{fill:url(#linear-gradient-83);}.cls-85{fill:url(#linear-gradient-84);}.cls-86{fill:url(#linear-gradient-85);}.cls-87{fill:url(#linear-gradient-86);}.cls-88{fill:url(#linear-gradient-87);}.cls-89{fill:url(#linear-gradient-88);}.cls-90{fill:url(#linear-gradient-89);}.cls-91{fill:url(#linear-gradient-90);}</style><linearGradient id="linear-gradient" x1="100" y1="199.9" x2="100" y2="-0.05" gradientUnits="userSpaceOnUse"><stop offset="0" stop-color="#f06"/><stop offset="1" stop-color="#f6f"/></linearGradient><linearGradient id="linear-gradient-2" x1="82.64" y1="198.45" x2="117.36" y2="1.49" xlink:href="#linear-gradient"/><linearGradient id="linear-gradient-3" x1="370.25" y1="199.9" x2="370.25" y2="-0.05" xlink:href="#linear-gradient"/><linearGradient id="linear-gradient-4" x1="352.89" y1="198.45" x2="387.61" y2="1.49" xlink:href="#linear-gradient"/><linearGradient id="linear-gradient-5" x1="640.5" y1="199.9" x2="640.5" y2="-0.05" xlink:href="#linear-gradient"/><linearGradient id="linear-gradient-6" x1="623.14" y1="198.45" x2="657.86" y2="1.49" xlink:href="#linear-gradient"/><linearGradient id="linear-gradient-7" x1="910.75" y1="199.9" x2="910.75" y2="-0.05" xlink:href="#linear-gradient"/><linearGradient id="linear-gradient-8" x1="893.39" y1="198.45" x2="928.11" y2="1.49" xlink:href="#linear-gradient"/><linearGradient id="linear-gradient-9" x1="1181" y1="199.9" x2="1181" y2="-0.05" xlink:href="#linear-gradient"/><linearGradient id="linear-gradient-10" x1="1163.64" y1="198.45" x2="1198.36" y2="1.49" xlink:href="#linear-gradient"/><linearGradient id="linear-gradient-11" y1="334.9" x2="100" y2="134.95" xlink:href="#linear-gradient"/><linearGradient id="linear-gradient-12" x1="82.64" y1="333.45" x2="117.36" y2="136.49" xlink:href="#linear-gradient"/><linearGradient id="linear-gradient-13" x1="370.25" y1="334.9" x2="370.25" y2="134.95" xlink:href="#linear-gradient"/><linearGradient id="linear-gradient-14" x1="352.89" y1="333.45" x2="387.61" y2="136.49" xlink:href="#linear-gradient"/><linearGradient id="linear-gradient-15" x1="640.5" y1="334.9" x2="640.5" y2="134.95" xlink:href="#linear-gradient"/><linearGradient id="linear-gradient-16" x1="623.14" y1="333.45" x2="657.86" y2="136.49" xlink:href="#linear-gradient"/><linearGradient id="linear-gradient-17" x1="910.75" y1="334.9" x2="910.75" y2="134.95" xlink:href="#linear-gradient"/><linearGradient id="linear-gradient-18" x1="893.39" y1="333.45" x2="928.11" y2="136.49" xlink:href="#linear-gradient"/><linearGradient id="linear-gradient-19" x1="1181" y1="334.9" x2="1181" y2="134.95" xlink:href="#linear-gradient"/><linearGradient id="linear-gradient-20" x1="1163.64" y1="333.45" x2="1198.36" y2="136.49" xlink:href="#linear-gradient"/><linearGradient id="linear-gradient-21" y1="469.9" x2="100" y2="269.95" xlink:href="#linear-gradient"/><linearGradient id="linear-gradient-22" x1="82.64" y1="468.45" x2="117.36" y2="271.49" xlink:href="#linear-gradient"/><linearGradient id="linear-gradient-23" x1="370.25" y1="469.9" x2="370.25" y2="269.95" xlink:href="#linear-gradient"/><linearGradient id="linear-gradient-24" x1="352.89" y1="468.45" x2="387.61" y2="271.49" xlink:href="#linear-gradient"/><linearGradient id="linear-gradient-25" x1="640.5" y1="469.9" x2="640.5" y2="269.95" xlink:href="#linear-gradient"/><linearGradient id="linear-gradient-26" x1="623.14" y1="468.45" x2="657.86" y2="271.49" xlink:href="#linear-gradient"/><linearGradient id="linear-gradient-27" x1="910.75" y1="469.9" x2="910.75" y2="269.95" xlink:href="#linear-gradient"/><linearGradient id="linear-gradient-28" x1="893.39" y1="468.45" x2="928.11" y2="271.49" xlink:href="#linear-gradient"/><linearGradient id="linear-gradient-29" x1="1181" y1="469.9" x2="1181" y2="269.95" xlink:href="#linear-gradient"/><linearGradient id="linear-gradient-30" x1="1163.64" y1="468.45" x2="1198.36" y2="271.49" xlink:href="#linear-gradient"/><linearGradient id="linear-gradient-31" y1="604.9" x2="100" y2="404.95" xlink:href="#linear-gradient"/><linearGradient id="linear-gradient-32" x1="82.64" y1="603.45" x2="117.36" y2="406.49" xlink:href="#linear-gradient"/><linearGradient id="linear-gradient-33" x1="370.25" y1="604.9" x2="370.25" y2="404.95" xlink:href="#linear-gradient"/><linearGradient id="linear-gradient-34" x1="352.89" y1="603.45" x2="387.61" y2="406.49" xlink:href="#linear-gradient"/><linearGradient id="linear-gradient-35" x1="640.5" y1="604.9" x2="640.5" y2="404.95" xlink:href="#linear-gradient"/><linearGradient id="linear-gradient-36" x1="623.14" y1="603.45" x2="657.86" y2="406.49" xlink:href="#linear-gradient"/><linearGradient id="linear-gradient-37" x1="910.75" y1="604.9" x2="910.75" y2="404.95" xlink:href="#linear-gradient"/><linearGradient id="linear-gradient-38" x1="893.39" y1="603.45" x2="928.11" y2="406.49" xlink:href="#linear-gradient"/><linearGradient id="linear-gradient-39" x1="1181" y1="604.9" x2="1181" y2="404.95" xlink:href="#linear-gradient"/><linearGradient id="linear-gradient-40" x1="1163.64" y1="603.45" x2="1198.36" y2="406.49" xlink:href="#linear-gradient"/><linearGradient id="linear-gradient-41" y1="739.9" x2="100" y2="539.95" xlink:href="#linear-gradient"/><linearGradient id="linear-gradient-42" x1="82.64" y1="738.45" x2="117.36" y2="541.49" xlink:href="#linear-gradient"/><linearGradient id="linear-gradient-43" x1="370.25" y1="739.9" x2="370.25" y2="539.95" xlink:href="#linear-gradient"/><linearGradient id="linear-gradient-44" x1="352.89" y1="738.45" x2="387.61" y2="541.49" xlink:href="#linear-gradient"/><linearGradient id="linear-gradient-45" x1="640.5" y1="739.9" x2="640.5" y2="539.95" xlink:href="#linear-gradient"/><linearGradient id="linear-gradient-46" x1="623.14" y1="738.45" x2="657.86" y2="541.49" xlink:href="#linear-gradient"/><linearGradient id="linear-gradient-47" x1="910.75" y1="739.9" x2="910.75" y2="539.95" xlink:href="#linear-gradient"/><linearGradient id="linear-gradient-48" x1="893.39" y1="738.45" x2="928.11" y2="541.49" xlink:href="#linear-gradient"/><linearGradient id="linear-gradient-49" x1="1181" y1="739.9" x2="1181" y2="539.95" xlink:href="#linear-gradient"/><linearGradient id="linear-gradient-50" x1="1163.64" y1="738.45" x2="1198.36" y2="541.49" xlink:href="#linear-gradient"/><linearGradient id="linear-gradient-51" y1="874.9" x2="100" y2="674.95" xlink:href="#linear-gradient"/><linearGradient id="linear-gradient-52" x1="82.64" y1="873.45" x2="117.36" y2="676.49" xlink:href="#linear-gradient"/><linearGradient id="linear-gradient-53" x1="370.25" y1="874.9" x2="370.25" y2="674.95" xlink:href="#linear-gradient"/><linearGradient id="linear-gradient-54" x1="352.89" y1="873.45" x2="387.61" y2="676.49" xlink:href="#linear-gradient"/><linearGradient id="linear-gradient-55" x1="640.5" y1="874.9" x2="640.5" y2="674.95" xlink:href="#linear-gradient"/><linearGradient id="linear-gradient-56" x1="623.14" y1="873.45" x2="657.86" y2="676.49" xlink:href="#linear-gradient"/><linearGradient id="linear-gradient-57" x1="910.75" y1="874.9" x2="910.75" y2="674.95" xlink:href="#linear-gradient"/><linearGradient id="linear-gradient-58" x1="893.39" y1="873.45" x2="928.11" y2="676.49" xlink:href="#linear-gradient"/><linearGradient id="linear-gradient-59" x1="1181" y1="874.9" x2="1181" y2="674.95" xlink:href="#linear-gradient"/><linearGradient id="linear-gradient-60" x1="1163.64" y1="873.45" x2="1198.36" y2="676.49" xlink:href="#linear-gradient"/><linearGradient id="linear-gradient-61" y1="1009.9" x2="100" y2="809.95" xlink:href="#linear-gradient"/><linearGradient id="linear-gradient-62" x1="82.64" y1="1008.45" x2="117.36" y2="811.49" xlink:href="#linear-gradient"/><linearGradient id="linear-gradient-63" x1="370.25" y1="1009.9" x2="370.25" y2="809.95" xlink:href="#linear-gradient"/><linearGradient id="linear-gradient-64" x1="352.89" y1="1008.45" x2="387.61" y2="811.49" xlink:href="#linear-gradient"/><linearGradient id="linear-gradient-65" x1="640.5" y1="1009.9" x2="640.5" y2="809.95" xlink:href="#linear-gradient"/><linearGradient id="linear-gradient-66" x1="623.14" y1="1008.45" x2="657.86" y2="811.49" xlink:href="#linear-gradient"/><linearGradient id="linear-gradient-67" x1="910.75" y1="1009.9" x2="910.75" y2="809.95" xlink:href="#linear-gradient"/><linearGradient id="linear-gradient-68" x1="893.39" y1="1008.45" x2="928.11" y2="811.49" xlink:href="#linear-gradient"/><linearGradient id="linear-gradient-69" x1="1181" y1="1009.9" x2="1181" y2="809.95" xlink:href="#linear-gradient"/><linearGradient id="linear-gradient-70" x1="1163.64" y1="1008.45" x2="1198.36" y2="811.49" xlink:href="#linear-gradient"/><linearGradient id="linear-gradient-71" y1="1144.9" x2="100" y2="944.95" xlink:href="#linear-gradient"/><linearGradient id="linear-gradient-72" x1="82.64" y1="1143.45" x2="117.36" y2="946.49" xlink:href="#linear-gradient"/><linearGradient id="linear-gradient-73" x1="370.25" y1="1144.9" x2="370.25" y2="944.95" xlink:href="#linear-gradient"/><linearGradient id="linear-gradient-74" x1="352.89" y1="1143.45" x2="387.61" y2="946.49" xlink:href="#linear-gradient"/><linearGradient id="linear-gradient-75" x1="640.5" y1="1144.9" x2="640.5" y2="944.95" xlink:href="#linear-gradient"/><linearGradient id="linear-gradient-76" x1="623.14" y1="1143.45" x2="657.86" y2="946.49" xlink:href="#linear-gradient"/><linearGradient id="linear-gradient-77" x1="910.75" y1="1144.9" x2="910.75" y2="944.95" xlink:href="#linear-gradient"/><linearGradient id="linear-gradient-78" x1="893.39" y1="1143.45" x2="928.11" y2="946.49" xlink:href="#linear-gradient"/><linearGradient id="linear-gradient-79" x1="1181" y1="1144.9" x2="1181" y2="944.95" xlink:href="#linear-gradient"/><linearGradient id="linear-gradient-80" x1="1163.64" y1="1143.45" x2="1198.36" y2="946.49" xlink:href="#linear-gradient"/><linearGradient id="linear-gradient-81" y1="1279.9" x2="100" y2="1079.95" xlink:href="#linear-gradient"/><linearGradient id="linear-gradient-82" x1="82.64" y1="1278.45" x2="117.36" y2="1081.49" xlink:href="#linear-gradient"/><linearGradient id="linear-gradient-83" x1="370.25" y1="1279.9" x2="370.25" y2="1079.95" xlink:href="#linear-gradient"/><linearGradient id="linear-gradient-84" x1="352.89" y1="1278.45" x2="387.61" y2="1081.49" xlink:href="#linear-gradient"/><linearGradient id="linear-gradient-85" x1="640.5" y1="1279.9" x2="640.5" y2="1079.95" xlink:href="#linear-gradient"/><linearGradient id="linear-gradient-86" x1="623.14" y1="1278.45" x2="657.86" y2="1081.49" xlink:href="#linear-gradient"/><linearGradient id="linear-gradient-87" x1="910.75" y1="1279.9" x2="910.75" y2="1079.95" xlink:href="#linear-gradient"/><linearGradient id="linear-gradient-88" x1="893.39" y1="1278.45" x2="928.11" y2="1081.49" xlink:href="#linear-gradient"/><linearGradient id="linear-gradient-89" x1="1181" y1="1279.9" x2="1181" y2="1079.95" xlink:href="#linear-gradient"/><linearGradient id="linear-gradient-90" x1="1163.64" y1="1278.45" x2="1198.36" y2="1081.49" xlink:href="#linear-gradient"/></defs><g class="cls-1"><ellipse class="cls-2" cx="100" cy="99.92" rx="100" ry="99.98"/></g><g class="cls-1"><ellipse class="cls-3" cx="100" cy="99.97" rx="100" ry="99.98"/></g><g class="cls-1"><ellipse class="cls-4" cx="370.25" cy="99.92" rx="100" ry="99.98"/></g><g class="cls-1"><ellipse class="cls-5" cx="370.25" cy="99.97" rx="100" ry="99.98"/></g><g class="cls-1"><ellipse class="cls-6" cx="640.5" cy="99.92" rx="100" ry="99.98"/></g><g class="cls-1"><ellipse class="cls-7" cx="640.5" cy="99.97" rx="100" ry="99.98"/></g><g class="cls-1"><ellipse class="cls-8" cx="910.75" cy="99.92" rx="100" ry="99.98"/></g><g class="cls-1"><ellipse class="cls-9" cx="910.75" cy="99.97" rx="100" ry="99.98"/></g><g class="cls-1"><ellipse class="cls-10" cx="1181" cy="99.92" rx="100" ry="99.98"/></g><g class="cls-1"><ellipse class="cls-11" cx="1181" cy="99.97" rx="100" ry="99.98"/></g><g class="cls-1"><ellipse class="cls-12" cx="100" cy="234.92" rx="100" ry="99.98"/></g><g class="cls-1"><ellipse class="cls-13" cx="100" cy="234.97" rx="100" ry="99.98"/></g><g class="cls-1"><ellipse class="cls-14" cx="370.25" cy="234.92" rx="100" ry="99.98"/></g><g class="cls-1"><ellipse class="cls-15" cx="370.25" cy="234.97" rx="100" ry="99.98"/></g><g class="cls-1"><ellipse class="cls-16" cx="640.5" cy="234.92" rx="100" ry="99.98"/></g><g class="cls-1"><ellipse class="cls-17" cx="640.5" cy="234.97" rx="100" ry="99.98"/></g><g class="cls-1"><ellipse class="cls-18" cx="910.75" cy="234.92" rx="100" ry="99.98"/></g><g class="cls-1"><ellipse class="cls-19" cx="910.75" cy="234.97" rx="100" ry="99.98"/></g><g class="cls-1"><ellipse class="cls-20" cx="1181" cy="234.92" rx="100" ry="99.98"/></g><g class="cls-1"><ellipse class="cls-21" cx="1181" cy="234.97" rx="100" ry="99.98"/></g><g class="cls-1"><ellipse class="cls-22" cx="100" cy="369.92" rx="100" ry="99.98"/></g><g class="cls-1"><ellipse class="cls-23" cx="100" cy="369.97" rx="100" ry="99.98"/></g><g class="cls-1"><ellipse class="cls-24" cx="370.25" cy="369.92" rx="100" ry="99.98"/></g><g class="cls-1"><ellipse class="cls-25" cx="370.25" cy="369.97" rx="100" ry="99.98"/></g><g class="cls-1"><ellipse class="cls-26" cx="640.5" cy="369.92" rx="100" ry="99.98"/></g><g class="cls-1"><ellipse class="cls-27" cx="640.5" cy="369.97" rx="100" ry="99.98"/></g><g class="cls-1"><ellipse class="cls-28" cx="910.75" cy="369.92" rx="100" ry="99.98"/></g><g class="cls-1"><ellipse class="cls-29" cx="910.75" cy="369.97" rx="100" ry="99.98"/></g><g class="cls-1"><ellipse class="cls-30" cx="1181" cy="369.92" rx="100" ry="99.98"/></g><g class="cls-1"><ellipse class="cls-31" cx="1181" cy="369.97" rx="100" ry="99.98"/></g><g class="cls-1"><ellipse class="cls-32" cx="100" cy="504.92" rx="100" ry="99.98"/></g><g class="cls-1"><ellipse class="cls-33" cx="100" cy="504.97" rx="100" ry="99.98"/></g><g class="cls-1"><ellipse class="cls-34" cx="370.25" cy="504.92" rx="100" ry="99.98"/></g><g class="cls-1"><ellipse class="cls-35" cx="370.25" cy="504.97" rx="100" ry="99.98"/></g><g class="cls-1"><ellipse class="cls-36" cx="640.5" cy="504.92" rx="100" ry="99.98"/></g><g class="cls-1"><ellipse class="cls-37" cx="640.5" cy="504.97" rx="100" ry="99.98"/></g><g class="cls-1"><ellipse class="cls-38" cx="910.75" cy="504.92" rx="100" ry="99.98"/></g><g class="cls-1"><ellipse class="cls-39" cx="910.75" cy="504.97" rx="100" ry="99.98"/></g><g class="cls-1"><ellipse class="cls-40" cx="1181" cy="504.92" rx="100" ry="99.98"/></g><g class="cls-1"><ellipse class="cls-41" cx="1181" cy="504.97" rx="100" ry="99.98"/></g><g class="cls-1"><ellipse class="cls-42" cx="100" cy="639.92" rx="100" ry="99.98"/></g><g class="cls-1"><ellipse class="cls-43" cx="100" cy="639.97" rx="100" ry="99.98"/></g><g class="cls-1"><ellipse class="cls-44" cx="370.25" cy="639.92" rx="100" ry="99.98"/></g><g class="cls-1"><ellipse class="cls-45" cx="370.25" cy="639.97" rx="100" ry="99.98"/></g><g class="cls-1"><ellipse class="cls-46" cx="640.5" cy="639.92" rx="100" ry="99.98"/></g><g class="cls-1"><ellipse class="cls-47" cx="640.5" cy="639.97" rx="100" ry="99.98"/></g><g class="cls-1"><ellipse class="cls-48" cx="910.75" cy="639.92" rx="100" ry="99.98"/></g><g class="cls-1"><ellipse class="cls-49" cx="910.75" cy="639.97" rx="100" ry="99.98"/></g><g class="cls-1"><ellipse class="cls-50" cx="1181" cy="639.92" rx="100" ry="99.98"/></g><g class="cls-1"><ellipse class="cls-51" cx="1181" cy="639.97" rx="100" ry="99.98"/></g><g class="cls-1"><ellipse class="cls-52" cx="100" cy="774.92" rx="100" ry="99.98"/></g><g class="cls-1"><ellipse class="cls-53" cx="100" cy="774.97" rx="100" ry="99.98"/></g><g class="cls-1"><ellipse class="cls-54" cx="370.25" cy="774.92" rx="100" ry="99.98"/></g><g class="cls-1"><ellipse class="cls-55" cx="370.25" cy="774.97" rx="100" ry="99.98"/></g><g class="cls-1"><ellipse class="cls-56" cx="640.5" cy="774.92" rx="100" ry="99.98"/></g><g class="cls-1"><ellipse class="cls-57" cx="640.5" cy="774.97" rx="100" ry="99.98"/></g><g class="cls-1"><ellipse class="cls-58" cx="910.75" cy="774.92" rx="100" ry="99.98"/></g><g class="cls-1"><ellipse class="cls-59" cx="910.75" cy="774.97" rx="100" ry="99.98"/></g><g class="cls-1"><ellipse class="cls-60" cx="1181" cy="774.92" rx="100" ry="99.98"/></g><g class="cls-1"><ellipse class="cls-61" cx="1181" cy="774.97" rx="100" ry="99.98"/></g><g class="cls-1"><ellipse class="cls-62" cx="100" cy="909.92" rx="100" ry="99.98"/></g><g class="cls-1"><ellipse class="cls-63" cx="100" cy="909.97" rx="100" ry="99.98"/></g><g class="cls-1"><ellipse class="cls-64" cx="370.25" cy="909.92" rx="100" ry="99.98"/></g><g class="cls-1"><ellipse class="cls-65" cx="370.25" cy="909.97" rx="100" ry="99.98"/></g><g class="cls-1"><ellipse class="cls-66" cx="640.5" cy="909.92" rx="100" ry="99.98"/></g><g class="cls-1"><ellipse class="cls-67" cx="640.5" cy="909.97" rx="100" ry="99.98"/></g><g class="cls-1"><ellipse class="cls-68" cx="910.75" cy="909.92" rx="100" ry="99.98"/></g><g class="cls-1"><ellipse class="cls-69" cx="910.75" cy="909.97" rx="100" ry="99.98"/></g><g class="cls-1"><ellipse class="cls-70" cx="1181" cy="909.92" rx="100" ry="99.98"/></g><g class="cls-1"><ellipse class="cls-71" cx="1181" cy="909.97" rx="100" ry="99.98"/></g><g class="cls-1"><ellipse class="cls-72" cx="100" cy="1044.92" rx="100" ry="99.98"/></g><g class="cls-1"><ellipse class="cls-73" cx="100" cy="1044.97" rx="100" ry="99.98"/></g><g class="cls-1"><ellipse class="cls-74" cx="370.25" cy="1044.92" rx="100" ry="99.98"/></g><g class="cls-1"><ellipse class="cls-75" cx="370.25" cy="1044.97" rx="100" ry="99.98"/></g><g class="cls-1"><ellipse class="cls-76" cx="640.5" cy="1044.92" rx="100" ry="99.98"/></g><g class="cls-1"><ellipse class="cls-77" cx="640.5" cy="1044.97" rx="100" ry="99.98"/></g><g class="cls-1"><ellipse class="cls-78" cx="910.75" cy="1044.92" rx="100" ry="99.98"/></g><g class="cls-1"><ellipse class="cls-79" cx="910.75" cy="1044.97" rx="100" ry="99.98"/></g><g class="cls-1"><ellipse class="cls-80" cx="1181" cy="1044.92" rx="100" ry="99.98"/></g><g class="cls-1"><ellipse class="cls-81" cx="1181" cy="1044.97" rx="100" ry="99.98"/></g><g class="cls-1"><ellipse class="cls-82" cx="100" cy="1179.92" rx="100" ry="99.98"/></g><g class="cls-1"><ellipse class="cls-83" cx="100" cy="1179.97" rx="100" ry="99.98"/></g><g class="cls-1"><ellipse class="cls-84" cx="370.25" cy="1179.92" rx="100" ry="99.98"/></g><g class="cls-1"><ellipse class="cls-85" cx="370.25" cy="1179.97" rx="100" ry="99.98"/></g><g class="cls-1"><ellipse class="cls-86" cx="640.5" cy="1179.92" rx="100" ry="99.98"/></g><g class="cls-1"><ellipse class="cls-87" cx="640.5" cy="1179.97" rx="100" ry="99.98"/></g><g class="cls-1"><ellipse class="cls-88" cx="910.75" cy="1179.92" rx="100" ry="99.98"/></g><g class="cls-1"><ellipse class="cls-89" cx="910.75" cy="1179.97" rx="100" ry="99.98"/></g><g class="cls-1"><ellipse class="cls-90" cx="1181" cy="1179.92" rx="100" ry="99.98"/></g><g class="cls-1"><ellipse class="cls-91" cx="1181" cy="1179.97" rx="100" ry="99.98"/></g></svg>