<svg id="Layer_1" data-name="Layer 1" xmlns="http://www.w3.org/2000/svg" xmlns:xlink="http://www.w3.org/1999/xlink" viewBox="0 0 1280 640"><defs><style>.cls-1{opacity:0.57;}.cls-2{fill:url(#linear-gradient);}.cls-3{fill:url(#linear-gradient-2);}.cls-4{fill:url(#linear-gradient-3);}.cls-5{fill:url(#linear-gradient-4);}.cls-6{fill:url(#linear-gradient-5);}.cls-7{fill:url(#linear-gradient-6);}.cls-8{fill:url(#linear-gradient-7);}.cls-9{fill:url(#linear-gradient-8);}.cls-10{fill:url(#linear-gradient-9);}.cls-11{fill:url(#linear-gradient-10);}.cls-12{fill:url(#linear-gradient-11);}.cls-13{fill:url(#linear-gradient-12);}.cls-14{fill:url(#linear-gradient-13);}.cls-15{fill:url(#linear-gradient-14);}.cls-16{fill:url(#linear-gradient-15);}.cls-17{fill:url(#linear-gradient-16);}.cls-18{fill:url(#linear-gradient-17);}.cls-19{fill:url(#linear-gradient-18);}.cls-20{fill:url(#linear-gradient-19);}.cls-21{fill:url(#linear-gradient-20);}.cls-22{fill:url(#linear-gradient-21);}.cls-23{fill:url(#linear-gradient-22);}.cls-24{fill:url(#linear-gradient-23);}.cls-25{fill:url(#linear-gradient-24);}.cls-26{fill:url(#linear-gradient-25);}.cls-27{fill:url(#linear-gradient-26);}.cls-28{fill:url(#linear-gradient-27);}.cls-29{fill:url(#linear-gradient-28);}.cls-30{fill:url(#linear-gradient-29);}.cls-31{fill:url(#linear-gradient-30);}.cls-32{fill:url(#linear-gradient-31);}.cls-33{fill:url(#linear-gradient-32);}.cls-34{fill:url(#linear-gradient-33);}.cls-35{fill:url(#linear-gradient-34);}.cls-36{fill:url(#linear-gradient-35);}.cls-37{fill:url(#linear-gradient-36);}.cls-38{fill:url(#linear-gradient-37);}.cls-39{fill:url(#linear-gradient-38);}.cls-40{fill:url(#linear-gradient-39);}.cls-41{fill:url(#linear-gradient-40);}</style><linearGradient id="linear-gradient" x1="100" y1="199.9" x2="100" y2="-0.05" gradientUnits="userSpaceOnUse"><stop offset="0" stop-color="#3b4463"/><stop offset="1" stop-color="#fff"/></linearGradient><linearGradient id="linear-gradient-2" x1="82.64" y1="198.45" x2="117.36" y2="1.49" xlink:href="#linear-gradient"/><linearGradient id="linear-gradient-3" x1="100" y1="334.9" x2="100" y2="134.95" xlink:href="#linear-gradient"/><linearGradient id="linear-gradient-4" x1="82.64" y1="333.45" x2="117.36" y2="136.49" xlink:href="#linear-gradient"/><linearGradient id="linear-gradient-5" x1="100" y1="469.9" x2="100" y2="269.95" xlink:href="#linear-gradient"/><linearGradient id="linear-gradient-6" x1="82.64" y1="468.45" x2="117.36" y2="271.49" xlink:href="#linear-gradient"/><linearGradient id="linear-gradient-7" x1="100" y1="604.9" x2="100" y2="404.95" xlink:href="#linear-gradient"/><linearGradient id="linear-gradient-8" x1="82.64" y1="603.45" x2="117.36" y2="406.49" xlink:href="#linear-gradient"/><linearGradient id="linear-gradient-9" x1="370.5" y1="-1921.1" x2="370.5" y2="-2121.05" gradientTransform="translate(740.5 -1516.11) rotate(180)" xlink:href="#linear-gradient"/><linearGradient id="linear-gradient-10" x1="353.14" y1="-1922.55" x2="387.86" y2="-2119.51" gradientTransform="translate(740.5 -1516.11) rotate(180)" xlink:href="#linear-gradient"/><linearGradient id="linear-gradient-11" x1="370.5" y1="-1786.1" x2="370.5" y2="-1986.05" gradientTransform="translate(740.5 -1516.11) rotate(180)" xlink:href="#linear-gradient"/><linearGradient id="linear-gradient-12" x1="353.14" y1="-1787.55" x2="387.86" y2="-1984.51" gradientTransform="translate(740.5 -1516.11) rotate(180)" xlink:href="#linear-gradient"/><linearGradient id="linear-gradient-13" x1="370.5" y1="-1651.1" x2="370.5" y2="-1851.05" gradientTransform="translate(740.5 -1516.11) rotate(180)" xlink:href="#linear-gradient"/><linearGradient id="linear-gradient-14" x1="353.14" y1="-1652.55" x2="387.86" y2="-1849.51" gradientTransform="translate(740.5 -1516.11) rotate(180)" xlink:href="#linear-gradient"/><linearGradient id="linear-gradient-15" x1="370.5" y1="-1516.1" x2="370.5" y2="-1716.05" gradientTransform="translate(740.5 -1516.11) rotate(180)" xlink:href="#linear-gradient"/><linearGradient id="linear-gradient-16" x1="353.14" y1="-1517.55" x2="387.86" y2="-1714.51" gradientTransform="translate(740.5 -1516.11) rotate(180)" xlink:href="#linear-gradient"/><linearGradient id="linear-gradient-17" x1="640" y1="199.9" x2="640" y2="-0.05" xlink:href="#linear-gradient"/><linearGradient id="linear-gradient-18" x1="622.64" y1="198.45" x2="657.36" y2="1.49" xlink:href="#linear-gradient"/><linearGradient id="linear-gradient-19" x1="640" y1="334.9" x2="640" y2="134.95" xlink:href="#linear-gradient"/><linearGradient id="linear-gradient-20" x1="622.64" y1="333.45" x2="657.36" y2="136.49" xlink:href="#linear-gradient"/><linearGradient id="linear-gradient-21" x1="640" y1="469.9" x2="640" y2="269.95" xlink:href="#linear-gradient"/><linearGradient id="linear-gradient-22" x1="622.64" y1="468.45" x2="657.36" y2="271.49" xlink:href="#linear-gradient"/><linearGradient id="linear-gradient-23" x1="640" y1="604.9" x2="640" y2="404.95" xlink:href="#linear-gradient"/><linearGradient id="linear-gradient-24" x1="622.64" y1="603.45" x2="657.36" y2="406.49" xlink:href="#linear-gradient"/><linearGradient id="linear-gradient-25" x1="911.5" y1="-1921.1" x2="911.5" y2="-2121.05" gradientTransform="translate(1821.5 -1516.11) rotate(180)" xlink:href="#linear-gradient"/><linearGradient id="linear-gradient-26" x1="894.14" y1="-1922.55" x2="928.86" y2="-2119.51" gradientTransform="translate(1821.5 -1516.11) rotate(180)" xlink:href="#linear-gradient"/><linearGradient id="linear-gradient-27" x1="911.5" y1="-1786.1" x2="911.5" y2="-1986.05" gradientTransform="translate(1821.5 -1516.11) rotate(180)" xlink:href="#linear-gradient"/><linearGradient id="linear-gradient-28" x1="894.14" y1="-1787.55" x2="928.86" y2="-1984.51" gradientTransform="translate(1821.5 -1516.11) rotate(180)" xlink:href="#linear-gradient"/><linearGradient id="linear-gradient-29" x1="911.5" y1="-1651.1" x2="911.5" y2="-1851.05" gradientTransform="translate(1821.5 -1516.11) rotate(180)" xlink:href="#linear-gradient"/><linearGradient id="linear-gradient-30" x1="894.14" y1="-1652.55" x2="928.86" y2="-1849.51" gradientTransform="translate(1821.5 -1516.11) rotate(180)" xlink:href="#linear-gradient"/><linearGradient id="linear-gradient-31" x1="911.5" y1="-1516.1" x2="911.5" y2="-1716.05" gradientTransform="translate(1821.5 -1516.11) rotate(180)" xlink:href="#linear-gradient"/><linearGradient id="linear-gradient-32" x1="894.14" y1="-1517.55" x2="928.86" y2="-1714.51" gradientTransform="translate(1821.5 -1516.11) rotate(180)" xlink:href="#linear-gradient"/><linearGradient id="linear-gradient-33" x1="1180" y1="199.9" x2="1180" y2="-0.05" xlink:href="#linear-gradient"/><linearGradient id="linear-gradient-34" x1="1162.64" y1="198.45" x2="1197.36" y2="1.49" xlink:href="#linear-gradient"/><linearGradient id="linear-gradient-35" x1="1180" y1="334.9" x2="1180" y2="134.95" xlink:href="#linear-gradient"/><linearGradient id="linear-gradient-36" x1="1162.64" y1="333.45" x2="1197.36" y2="136.49" xlink:href="#linear-gradient"/><linearGradient id="linear-gradient-37" x1="1180" y1="469.9" x2="1180" y2="269.95" xlink:href="#linear-gradient"/><linearGradient id="linear-gradient-38" x1="1162.64" y1="468.45" x2="1197.36" y2="271.49" xlink:href="#linear-gradient"/><linearGradient id="linear-gradient-39" x1="1180" y1="604.9" x2="1180" y2="404.95" xlink:href="#linear-gradient"/><linearGradient id="linear-gradient-40" x1="1162.64" y1="603.45" x2="1197.36" y2="406.49" xlink:href="#linear-gradient"/></defs><title>pw-03</title><g class="cls-1"><ellipse class="cls-2" cx="100" cy="99.92" rx="100" ry="99.98"/></g><g class="cls-1"><ellipse class="cls-3" cx="100" cy="99.97" rx="100" ry="99.98"/></g><g class="cls-1"><ellipse class="cls-4" cx="100" cy="234.92" rx="100" ry="99.98"/></g><g class="cls-1"><ellipse class="cls-5" cx="100" cy="234.97" rx="100" ry="99.98"/></g><g class="cls-1"><ellipse class="cls-6" cx="100" cy="369.92" rx="100" ry="99.98"/></g><g class="cls-1"><ellipse class="cls-7" cx="100" cy="369.97" rx="100" ry="99.98"/></g><g class="cls-1"><ellipse class="cls-8" cx="100" cy="504.92" rx="100" ry="99.98"/></g><g class="cls-1"><ellipse class="cls-9" cx="100" cy="504.97" rx="100" ry="99.98"/></g><g class="cls-1"><ellipse class="cls-10" cx="370" cy="504.97" rx="100" ry="99.98"/></g><g class="cls-1"><ellipse class="cls-11" cx="370" cy="504.92" rx="100" ry="99.98"/></g><g class="cls-1"><ellipse class="cls-12" cx="370" cy="369.97" rx="100" ry="99.98"/></g><g class="cls-1"><ellipse class="cls-13" cx="370" cy="369.92" rx="100" ry="99.98"/></g><g class="cls-1"><ellipse class="cls-14" cx="370" cy="234.97" rx="100" ry="99.98"/></g><g class="cls-1"><ellipse class="cls-15" cx="370" cy="234.92" rx="100" ry="99.98"/></g><g class="cls-1"><ellipse class="cls-16" cx="370" cy="99.97" rx="100" ry="99.98"/></g><g class="cls-1"><ellipse class="cls-17" cx="370" cy="99.92" rx="100" ry="99.98"/></g><g class="cls-1"><ellipse class="cls-18" cx="640" cy="99.92" rx="100" ry="99.98"/></g><g class="cls-1"><ellipse class="cls-19" cx="640" cy="99.97" rx="100" ry="99.98"/></g><g class="cls-1"><ellipse class="cls-20" cx="640" cy="234.92" rx="100" ry="99.98"/></g><g class="cls-1"><ellipse class="cls-21" cx="640" cy="234.97" rx="100" ry="99.98"/></g><g class="cls-1"><ellipse class="cls-22" cx="640" cy="369.92" rx="100" ry="99.98"/></g><g class="cls-1"><ellipse class="cls-23" cx="640" cy="369.97" rx="100" ry="99.98"/></g><g class="cls-1"><ellipse class="cls-24" cx="640" cy="504.92" rx="100" ry="99.98"/></g><g class="cls-1"><ellipse class="cls-25" cx="640" cy="504.97" rx="100" ry="99.98"/></g><g class="cls-1"><ellipse class="cls-26" cx="910" cy="504.97" rx="100" ry="99.98"/></g><g class="cls-1"><ellipse class="cls-27" cx="910" cy="504.92" rx="100" ry="99.98"/></g><g class="cls-1"><ellipse class="cls-28" cx="910" cy="369.97" rx="100" ry="99.98"/></g><g class="cls-1"><ellipse class="cls-29" cx="910" cy="369.92" rx="100" ry="99.98"/></g><g class="cls-1"><ellipse class="cls-30" cx="910" cy="234.97" rx="100" ry="99.98"/></g><g class="cls-1"><ellipse class="cls-31" cx="910" cy="234.92" rx="100" ry="99.98"/></g><g class="cls-1"><ellipse class="cls-32" cx="910" cy="99.97" rx="100" ry="99.98"/></g><g class="cls-1"><ellipse class="cls-33" cx="910" cy="99.92" rx="100" ry="99.98"/></g><g class="cls-1"><ellipse class="cls-34" cx="1180" cy="99.92" rx="100" ry="99.98"/></g><g class="cls-1"><ellipse class="cls-35" cx="1180" cy="99.97" rx="100" ry="99.98"/></g><g class="cls-1"><ellipse class="cls-36" cx="1180" cy="234.92" rx="100" ry="99.98"/></g><g class="cls-1"><ellipse class="cls-37" cx="1180" cy="234.97" rx="100" ry="99.98"/></g><g class="cls-1"><ellipse class="cls-38" cx="1180" cy="369.92" rx="100" ry="99.98"/></g><g class="cls-1"><ellipse class="cls-39" cx="1180" cy="369.97" rx="100" ry="99.98"/></g><g class="cls-1"><ellipse class="cls-40" cx="1180" cy="504.92" rx="100" ry="99.98"/></g><g class="cls-1"><ellipse class="cls-41" cx="1180" cy="504.97" rx="100" ry="99.98"/></g></svg>