<?xml version="1.0" standalone="no"?>
<!DOCTYPE svg PUBLIC "-//W3C//DTD SVG 20010904//EN"
 "http://www.w3.org/TR/2001/REC-SVG-20010904/DTD/svg10.dtd">
<svg version="1.0" xmlns="http://www.w3.org/2000/svg"
 width="700.000000pt" height="700.000000pt" viewBox="0 0 700.000000 700.000000"
 preserveAspectRatio="xMidYMid meet">
<metadata>
Created by potrace 1.11, written by Peter Selinger 2001-2013
</metadata>
<g transform="translate(0.000000,700.000000) scale(0.100000,-0.100000)"
fill="#000000" stroke="none">
<path d="M3278 6995 c-1 -1 -42 -5 -89 -9 -47 -4 -95 -8 -105 -10 -10 -2 -46
-7 -79 -11 -32 -4 -68 -9 -80 -11 -11 -2 -45 -8 -75 -14 -460 -84 -971 -297
-1332 -555 -31 -22 -66 -47 -78 -55 -163 -109 -419 -347 -594 -550 -103 -119
-296 -377 -296 -395 0 -2 -13 -23 -29 -47 -106 -160 -249 -462 -336 -709 -63
-180 -140 -515 -160 -694 -3 -33 -8 -73 -11 -90 -9 -56 -11 -550 -3 -630 5
-44 11 -109 15 -145 4 -54 41 -263 57 -335 157 -670 466 -1229 945 -1711 161
-162 336 -305 539 -440 77 -52 145 -94 149 -94 4 0 15 -6 23 -14 29 -25 303
-161 431 -213 271 -111 594 -198 840 -228 25 -3 56 -7 69 -10 135 -26 696 -26
839 -1 19 4 89 14 142 21 19 3 46 7 60 10 14 3 41 8 60 11 141 24 430 110 624
187 135 53 420 193 463 227 14 11 30 20 35 20 5 0 14 5 21 10 7 6 59 41 117
79 230 149 482 368 670 580 36 41 70 79 75 85 35 36 182 236 238 321 191 292
348 630 438 942 23 82 75 304 83 356 3 20 9 54 12 75 3 20 7 44 9 52 2 8 7 42
11 75 3 33 8 74 11 90 2 17 6 143 8 280 2 226 -2 343 -20 475 -4 25 -8 61 -10
80 -16 140 -76 400 -136 582 -69 211 -106 299 -209 503 -220 434 -523 810
-915 1134 -212 175 -564 390 -796 486 -35 14 -82 34 -104 44 -107 49 -414 142
-580 176 -44 9 -89 19 -100 21 -11 2 -38 6 -60 9 -22 3 -51 7 -65 10 -13 2
-52 7 -86 11 -33 3 -74 8 -90 10 -32 5 -540 14 -546 9z"/>
</g>
</svg>
